<svg width="571" height="431" viewBox="0 0 571 431" fill="none" xmlns="http://www.w3.org/2000/svg">
<path d="M216.777 197.439C219.912 195.54 223.831 192.709 227.714 188.624C232.701 183.392 235.765 178.125 237.582 174.291C240.076 176.656 247.379 182.926 258.387 183.822C263.766 184.252 268.219 183.285 271.176 182.353C271.889 185.005 273.599 189.412 277.731 192.637C280.332 194.68 285.177 197.224 287.208 195.576C288.704 194.393 287.386 192.064 289.024 190.451C290.841 188.66 294.867 189.125 297.432 190.81C300.104 192.601 300.816 195.468 301.814 199.625C302.954 204.319 303.844 208.081 301.814 211.736C299.819 215.284 296.221 216.717 294.511 217.255C294.582 218.186 295.188 226.464 301.814 230.477C309.01 234.849 319.519 231.911 322.975 225.353C324.507 222.415 324.329 219.405 324.079 217.649C327.036 216.502 331.917 213.958 334.66 208.834C339.398 200.055 336.085 186.94 325.54 177.623C325.255 169.847 323.581 156.732 314.211 149.351C305.982 142.865 299.32 146.627 270.784 145.301C242.926 144.011 237.154 139.819 228.07 145.66C222.37 149.351 214.247 157.735 209.474 163.29C207.407 165.655 205.876 167.625 203.275 170.994C196.364 179.845 192.944 184.288 192.338 187.155C190.236 197.152 199.534 206.541 200.746 207.723C208.904 215.929 219.271 216.466 221.907 216.538C220.161 210.16 218.451 203.781 216.777 197.439Z" fill="#D7D7D7"/>
<path d="M279.94 196.076C279.833 196.184 278.907 195.503 277.589 194.213C276.271 192.923 274.525 190.952 273.243 188.372C272.601 187.082 272.138 185.756 271.889 184.538C271.604 183.32 271.568 182.173 271.604 181.206C271.64 180.74 271.675 180.31 271.746 179.916C271.818 179.521 271.96 179.199 272.138 178.948C272.316 178.697 272.53 178.59 272.708 178.554C272.851 178.518 272.958 178.554 272.958 178.59C272.993 178.661 272.708 178.769 272.53 179.199C272.459 179.414 272.388 179.701 272.388 180.023C272.388 180.346 272.388 180.776 272.423 181.206C272.495 182.101 272.601 183.141 272.922 184.287C273.207 185.434 273.67 186.652 274.276 187.835C275.487 190.271 277.055 192.242 278.195 193.64C279.335 195.073 280.047 195.969 279.94 196.076ZM297.966 231.121C297.86 231.193 297.254 230.62 296.577 229.509C296.221 228.936 295.9 228.255 295.58 227.431C295.259 226.606 294.974 225.711 294.796 224.707C294.618 223.704 294.511 222.772 294.475 221.876C294.475 221.016 294.511 220.228 294.618 219.583C294.831 218.293 295.116 217.541 295.295 217.541C295.651 217.612 295.152 220.73 295.936 224.456C296.613 228.219 298.251 230.906 297.966 231.121ZM308.191 307.518C308.191 307.59 307.835 307.769 307.193 308.02C307.015 308.091 306.837 308.127 306.659 308.199C306.481 308.271 306.267 308.378 306.018 308.486C305.555 308.701 305.056 308.88 304.521 309.202C304.236 309.346 303.951 309.489 303.666 309.632C303.381 309.776 303.096 309.991 302.776 310.17C302.135 310.528 301.565 310.994 300.888 311.496C299.641 312.499 298.323 313.753 297.183 315.186C296.043 316.656 295.116 318.196 294.404 319.666C294.083 320.418 293.763 321.099 293.549 321.816C293.442 322.174 293.3 322.496 293.228 322.819C293.157 323.141 293.05 323.464 292.979 323.751C292.801 324.36 292.73 324.897 292.623 325.363C292.587 325.614 292.516 325.829 292.48 326.044C292.445 326.259 292.445 326.438 292.409 326.617C292.302 327.298 292.231 327.692 292.16 327.692C292.088 327.692 292.017 327.298 291.981 326.581C291.981 326.402 291.981 326.187 291.946 325.972C291.946 325.757 291.981 325.506 291.981 325.256C292.017 324.754 292.053 324.181 292.16 323.536C292.231 323.213 292.266 322.891 292.338 322.532C292.409 322.174 292.516 321.851 292.623 321.493C292.801 320.741 293.121 320.024 293.442 319.2C294.119 317.659 295.081 316.011 296.292 314.434C297.539 312.893 298.928 311.639 300.282 310.6C300.995 310.134 301.636 309.632 302.313 309.31C302.633 309.131 302.954 308.951 303.275 308.808C303.595 308.665 303.916 308.521 304.201 308.414C304.771 308.127 305.341 307.984 305.84 307.841C306.089 307.769 306.303 307.697 306.516 307.661C306.73 307.626 306.908 307.59 307.086 307.554C307.799 307.446 308.191 307.446 308.191 307.518ZM295.58 268.03C295.722 268.03 295.829 269.212 295.865 271.147C295.865 272.115 295.865 273.261 295.829 274.516C295.829 275.161 295.793 275.806 295.793 276.486C295.793 276.737 295.758 277.024 295.758 277.311C295.758 277.454 295.758 277.633 295.722 277.776V278.027V278.099C295.722 278.099 295.722 278.135 295.686 278.135H295.58C295.259 278.099 294.974 278.063 294.653 278.027C294.511 278.027 294.333 277.991 294.226 277.956L293.941 277.92C290.984 277.454 288.49 276.379 286.816 275.411C285.141 274.408 284.286 273.584 284.358 273.441C284.465 273.297 285.462 273.906 287.172 274.659C288.882 275.411 291.305 276.307 294.119 276.773C294.297 276.809 294.44 276.809 294.582 276.845C294.618 276.845 294.582 276.809 294.618 276.809V276.737C294.618 276.666 294.618 276.594 294.618 276.486C294.653 275.806 294.689 275.125 294.725 274.516C294.796 273.261 294.903 272.115 294.974 271.147C295.223 269.212 295.401 268.03 295.58 268.03Z" fill="#D7D7D7" stroke="#D7D7D7" stroke-width="0.430212" stroke-miterlimit="10"/>
<path d="M306.588 233.918C306.588 234.061 305.412 234.276 303.595 233.846C302.669 233.631 301.6 233.237 300.531 232.592C299.463 231.947 298.358 231.051 297.432 229.94C296.506 228.794 295.9 227.539 295.508 226.357C295.116 225.174 294.974 224.028 294.938 223.096C294.903 221.197 295.366 220.086 295.508 220.122C295.686 220.158 295.544 221.269 295.758 223.024C295.971 224.744 296.684 227.145 298.323 229.224C299.997 231.302 302.17 232.484 303.809 233.058C305.448 233.667 306.588 233.739 306.588 233.918Z" fill="#D7D7D7" stroke="#D7D7D7" stroke-width="0.430212" stroke-miterlimit="10"/>
<path d="M295.865 332.28C295.58 332.424 295.294 332.531 295.009 332.674C294.724 332.818 294.44 332.925 294.155 333.033C293.585 333.248 293.014 333.499 292.444 333.678H292.266C292.409 333.678 292.266 333.714 292.231 333.714L292.088 333.749L291.768 333.857L291.126 334.036C290.699 334.144 290.271 334.251 289.844 334.359C288.989 334.574 288.134 334.753 287.243 334.896C286.388 335.039 285.498 335.147 284.607 335.254L283.93 335.326L283.61 335.362H283.431H283.36H283.325H283.289H283.218L281.935 335.398H280.653C280.19 335.398 279.726 335.362 279.299 335.326C278.836 335.29 278.373 335.254 277.91 335.219C277.446 335.183 277.019 335.075 276.591 335.004C275.701 334.824 274.846 334.645 273.991 334.359C273.136 334.072 272.281 333.821 271.461 333.463C270.642 333.14 269.823 332.818 269.003 332.459C268.184 332.101 267.365 331.814 266.545 331.492C265.726 331.169 264.906 330.919 264.087 330.668C263.268 330.417 262.413 330.202 261.593 329.951C260.774 329.7 259.919 329.521 259.064 329.306C258.209 329.127 257.354 328.912 256.499 328.769L253.934 328.231C253.506 328.124 253.079 328.052 252.651 327.944L252.01 327.801L251.69 327.729C251.511 327.658 251.618 327.729 251.654 327.729H251.725L251.333 327.622C250.585 327.407 249.801 327.156 249.053 326.905C248.305 326.654 247.557 326.368 246.809 326.045C246.061 325.759 245.348 325.436 244.6 325.114L243.496 324.648L242.427 324.146C241.715 323.788 240.966 323.465 240.29 323.107C239.577 322.749 238.865 322.39 238.188 321.96C237.511 321.566 236.834 321.136 236.157 320.706C235.48 320.276 234.839 319.81 234.198 319.344C233.556 318.879 232.915 318.377 232.31 317.875C231.704 317.374 231.063 316.872 230.493 316.334C229.887 315.797 229.317 315.295 228.711 314.722C228.141 314.184 227.571 313.611 227.001 313.038C226.467 312.464 225.897 311.891 225.398 311.282C224.864 310.673 224.365 310.064 223.866 309.454C223.368 308.845 222.905 308.164 222.441 307.519C221.978 306.874 221.551 306.194 221.123 305.477L221.515 305.047C221.871 305.226 222.228 305.405 222.584 305.584C222.94 305.764 223.261 305.979 223.617 306.158L225.648 307.304L227.643 308.487L229.638 309.669L237.44 314.328C238.081 314.722 238.722 315.08 239.363 315.474C240.005 315.869 240.646 316.263 241.287 316.657L245.099 319.058L246.061 319.667L247.023 320.24C247.664 320.634 248.305 321.029 248.982 321.387L250.941 322.498C251.618 322.856 252.26 323.25 252.901 323.644L252.58 323.537C252.83 323.609 253.115 323.788 253.15 323.788L253.435 323.931L253.97 324.254L255.074 324.899C255.822 325.329 256.57 325.723 257.318 326.153C258.066 326.547 258.85 326.941 259.634 327.264C260.418 327.622 261.201 327.909 262.021 328.195C262.413 328.339 262.84 328.482 263.232 328.589C263.624 328.733 264.051 328.84 264.443 328.948C265.263 329.163 266.118 329.306 266.937 329.449C267.792 329.593 268.647 329.664 269.502 329.7C270.357 329.772 271.212 329.772 272.067 329.772C272.495 329.772 272.922 329.808 273.35 329.772C273.777 329.772 274.205 329.772 274.596 329.772C275.451 329.808 276.271 329.808 277.09 329.879C277.482 329.915 277.91 329.951 278.301 329.987C278.693 330.023 279.085 330.059 279.477 330.094L280.653 330.238L281.935 330.345L283.218 330.453C283.182 330.453 283.289 330.453 283.146 330.453H283.182H283.218H283.289H283.431L283.752 330.489L284.358 330.524L286.851 330.704C287.706 330.775 288.526 330.811 289.381 330.883C289.808 330.919 290.236 330.954 290.663 330.99L291.305 331.062L291.625 331.098H291.768C291.839 331.098 291.803 331.098 292.053 331.098H291.875C292.48 331.134 293.086 331.205 293.691 331.277C294.012 331.313 294.297 331.349 294.618 331.42C294.938 331.456 295.223 331.528 295.544 331.564L295.865 332.28Z" fill="#D7D7D7"/>
<path d="M197.575 271.223C197.575 271.223 197.326 270.757 196.863 269.825C196.649 269.359 196.364 268.786 196.008 268.105C195.687 267.424 195.331 266.6 194.903 265.704C193.264 262.049 190.984 256.639 188.847 249.472C187.743 245.889 186.745 241.875 185.854 237.432C185.641 236.321 185.391 235.21 185.213 234.028C185.106 233.454 184.999 232.845 184.893 232.272C184.786 231.699 184.679 231.089 184.608 230.48C184.429 229.262 184.251 228.044 184.109 226.789C183.966 225.535 183.824 224.245 183.681 222.955C183.574 221.665 183.432 220.339 183.361 218.978C183.289 217.616 183.183 216.254 183.147 214.857C183.111 214.176 183.111 213.459 183.076 212.743C183.076 212.384 183.04 212.026 183.04 211.668V211.13V210.557C183.04 209.159 183.04 207.726 183.076 206.257C183.04 204.824 183.147 203.319 183.218 201.778C183.254 201.025 183.289 200.237 183.325 199.484C183.361 199.09 183.361 198.732 183.396 198.338C183.432 197.944 183.468 197.585 183.503 197.191C183.646 195.65 183.788 194.109 183.931 192.533C184.109 190.956 184.323 189.379 184.536 187.767C184.714 186.154 185.035 184.542 185.32 182.929C185.463 182.105 185.605 181.317 185.748 180.493C185.89 179.669 186.104 178.844 186.282 178.02C186.46 177.196 186.638 176.372 186.816 175.548C186.923 175.118 186.994 174.724 187.101 174.294C187.208 173.864 187.315 173.469 187.422 173.039C187.885 171.391 188.313 169.707 188.776 168.023C190.735 161.322 193.336 154.549 196.578 147.884C196.791 147.454 196.969 147.06 197.183 146.63C197.397 146.236 197.611 145.806 197.824 145.412C198.252 144.588 198.715 143.764 199.143 142.939C199.356 142.509 199.606 142.115 199.819 141.685C200.069 141.291 200.318 140.861 200.532 140.467C201.031 139.643 201.494 138.854 201.993 138.03C202.242 137.636 202.456 137.206 202.741 136.812L203.524 135.629C204.059 134.841 204.593 134.017 205.128 133.229C205.662 132.404 206.232 131.652 206.802 130.864C207.372 130.075 207.942 129.287 208.512 128.499C213.179 122.299 218.629 116.459 224.757 111.227C230.884 106.031 237.653 101.373 245.028 97.682C245.954 97.252 246.88 96.7861 247.806 96.3561L249.196 95.7112L250.621 95.1378C251.583 94.7437 252.544 94.3495 253.506 93.9553C254.468 93.597 255.466 93.2745 256.463 92.9161C258.423 92.1995 260.418 91.662 262.448 91.0886L263.196 90.8736C263.446 90.802 263.695 90.7661 263.944 90.6945L265.476 90.372L267.008 90.0136L267.792 89.8345L268.184 89.7628L268.576 89.6911C269.609 89.512 270.642 89.3686 271.675 89.1895L273.243 88.9386L274.81 88.7953C275.843 88.6878 276.912 88.5803 277.945 88.4728C279.014 88.4011 280.047 88.4012 281.116 88.3295L282.683 88.2578H283.075H283.289H283.503H284.286C285.319 88.2936 286.388 88.2937 287.421 88.3295C288.454 88.3295 289.523 88.4728 290.592 88.5445L292.195 88.6878L292.979 88.7595C293.264 88.7953 293.513 88.7953 293.763 88.8311L296.933 89.2611C297.468 89.3328 298.002 89.4045 298.501 89.4761L300.068 89.7986L303.203 90.4436C304.236 90.6945 305.269 90.9811 306.303 91.2678L307.87 91.662C308.404 91.8053 308.903 91.9845 309.402 92.1278L312.466 93.1311C312.964 93.2745 313.463 93.4895 313.962 93.7045L315.458 94.2778L316.954 94.887C317.204 94.9945 317.453 95.0662 317.703 95.1737L318.451 95.4962L321.372 96.8578L322.12 97.1803C322.369 97.2878 322.583 97.4311 322.833 97.5386L324.258 98.2911L325.683 99.0436C326.146 99.2945 326.644 99.5453 327.108 99.832L329.886 101.516C330.349 101.803 330.813 102.054 331.276 102.376L332.594 103.272L335.266 105.099C336.121 105.744 336.976 106.389 337.831 107.034C338.686 107.679 339.576 108.324 340.36 109.041L342.818 111.119L343.424 111.657C343.638 111.836 343.816 112.015 344.029 112.194L345.205 113.305C345.989 114.058 346.773 114.774 347.556 115.527L349.801 117.856L350.905 119.003C351.261 119.397 351.618 119.791 351.974 120.221C352.686 121.045 353.363 121.834 354.076 122.658L354.61 123.267C354.788 123.482 354.931 123.697 355.109 123.876L356.106 125.13C356.748 125.954 357.424 126.814 358.066 127.639C368.219 141.327 375.308 156.843 379.548 172.502C383.823 188.161 385.105 204.035 384.286 218.834C383.502 233.741 380.367 247.573 376.021 259.756C371.603 271.939 365.832 282.439 359.74 290.931C358.956 291.97 358.208 293.01 357.424 294.049C356.641 295.052 355.857 296.019 355.109 296.987C354.325 297.919 353.541 298.814 352.758 299.71C352.366 300.176 351.974 300.57 351.582 301C351.19 301.43 350.798 301.86 350.406 302.254C347.307 305.551 344.279 308.418 341.429 310.783C335.693 315.584 330.67 318.702 327.214 320.673C326.324 321.139 325.576 321.604 324.899 321.927C324.222 322.249 323.652 322.536 323.189 322.787C322.263 323.253 321.799 323.468 321.799 323.468L321.55 322.966C321.55 322.966 322.013 322.679 322.868 322.142C323.296 321.891 323.83 321.533 324.471 321.139C325.113 320.744 325.825 320.243 326.644 319.705C329.922 317.52 334.589 314.079 339.897 309.027C340.538 308.382 341.215 307.737 341.892 307.056C342.248 306.734 342.569 306.375 342.925 306.017C343.281 305.659 343.602 305.3 343.958 304.942C344.314 304.584 344.671 304.225 345.027 303.831C345.383 303.437 345.704 303.043 346.06 302.649C346.773 301.86 347.485 301.072 348.162 300.212C350.976 296.844 353.862 293.045 356.641 288.781C362.163 280.253 367.364 269.969 371.211 258.072C373.171 252.159 374.774 245.853 375.985 239.224C376.056 238.794 376.128 238.399 376.234 237.969C376.306 237.539 376.377 237.145 376.413 236.715C376.555 235.891 376.662 235.031 376.804 234.207C376.947 233.383 377.018 232.523 377.161 231.663C377.268 230.803 377.374 229.943 377.481 229.083C377.553 228.223 377.659 227.363 377.731 226.467C377.802 225.607 377.909 224.711 377.944 223.851C378.051 222.095 378.194 220.304 378.265 218.548C378.301 217.652 378.336 216.792 378.372 215.896C378.408 215 378.408 214.069 378.408 213.137C378.408 212.671 378.408 212.205 378.408 211.739V211.059V210.414C378.372 209.518 378.372 208.586 378.336 207.69C378.301 206.759 378.301 205.863 378.265 204.931C378.194 203.999 378.158 203.104 378.087 202.172C378.016 201.24 377.98 200.309 377.909 199.377C377.873 198.911 377.838 198.445 377.802 197.979C377.766 197.514 377.695 197.048 377.659 196.582C376.947 189.129 375.664 181.568 373.741 174.007C371.817 166.482 369.216 158.957 365.939 151.683C362.661 144.373 358.636 137.314 353.933 130.649C353.328 129.824 352.722 129 352.116 128.212L351.19 126.994C351.048 126.779 350.869 126.599 350.727 126.384L350.228 125.775C349.587 124.987 348.91 124.199 348.269 123.41C347.948 123.016 347.628 122.622 347.271 122.228L346.238 121.081L344.172 118.788C343.459 118.035 342.747 117.319 341.999 116.602L340.93 115.491C340.752 115.312 340.574 115.133 340.396 114.954L339.826 114.416L337.546 112.338C336.798 111.621 335.978 110.976 335.194 110.331C334.411 109.686 333.627 109.005 332.808 108.36L330.314 106.497L329.067 105.565C328.639 105.279 328.212 104.992 327.784 104.705L325.219 102.985C324.792 102.699 324.329 102.448 323.901 102.161L322.548 101.373L321.194 100.584C320.98 100.441 320.766 100.298 320.517 100.19L319.84 99.832L317.097 98.3987C309.687 94.672 301.636 92.1995 293.442 90.9453C293.193 90.9095 292.943 90.8737 292.658 90.8378L291.874 90.7661L290.343 90.587L288.811 90.4078C288.561 90.372 288.312 90.3361 288.027 90.3361L287.243 90.3003C286.21 90.2645 285.141 90.2286 284.108 90.157L283.324 90.1212H283.146H282.968H282.576L281.044 90.157C280.011 90.1928 278.978 90.1928 277.945 90.2286C276.912 90.3361 275.879 90.4078 274.881 90.5153L273.349 90.6587C272.851 90.7303 272.316 90.802 271.818 90.8736C270.784 91.017 269.787 91.1961 268.754 91.3395C260.667 92.8445 252.936 95.6395 245.811 99.4378C244.921 99.9037 244.066 100.441 243.175 100.943L241.893 101.695L241.251 102.089C241.038 102.233 240.824 102.376 240.61 102.484C239.791 103.021 238.936 103.594 238.116 104.132C237.689 104.419 237.297 104.669 236.869 104.956L235.658 105.852C234.874 106.461 234.055 107.034 233.271 107.644C232.488 108.253 231.739 108.898 230.991 109.543L229.851 110.474C229.459 110.797 229.103 111.084 228.747 111.442C228.034 112.123 227.322 112.768 226.609 113.449L225.541 114.452C225.184 114.81 224.864 115.133 224.508 115.491C223.831 116.172 223.154 116.889 222.477 117.569C221.8 118.25 221.194 119.003 220.518 119.719C219.876 120.436 219.235 121.153 218.629 121.869C218.024 122.622 217.418 123.374 216.813 124.091C216.207 124.844 215.601 125.56 215.031 126.313C214.461 127.065 213.927 127.854 213.357 128.606L212.538 129.753L212.11 130.326L211.718 130.899C211.184 131.688 210.685 132.476 210.151 133.229C209.616 134.017 209.118 134.769 208.654 135.558C208.191 136.346 207.693 137.134 207.229 137.923L206.517 139.105C206.303 139.499 206.089 139.894 205.84 140.324C204.023 143.513 202.384 146.738 200.888 149.963C200.532 150.787 200.14 151.575 199.784 152.399C199.428 153.188 199.036 154.012 198.715 154.836C198.394 155.66 198.038 156.449 197.718 157.273C197.539 157.667 197.397 158.097 197.219 158.491L196.969 159.1L196.756 159.709C196.15 161.358 195.58 162.97 195.01 164.583C194.476 166.195 193.977 167.808 193.443 169.42C192.944 171.033 192.552 172.645 192.089 174.222C191.982 174.616 191.875 175.01 191.768 175.404C191.661 175.799 191.59 176.193 191.483 176.623C191.305 177.411 191.091 178.199 190.913 179.024C190.735 179.812 190.521 180.6 190.379 181.389C190.236 182.177 190.058 182.965 189.916 183.754C189.631 185.33 189.274 186.871 189.061 188.412C188.847 189.953 188.562 191.494 188.348 192.999C188.17 194.504 187.992 196.009 187.849 197.514C187.814 197.872 187.778 198.266 187.707 198.624C187.671 198.983 187.636 199.377 187.636 199.735C187.564 200.452 187.529 201.204 187.458 201.921C187.351 203.39 187.208 204.788 187.173 206.257C187.137 207.69 187.066 209.124 187.03 210.557V211.023V211.524C187.03 211.883 187.03 212.205 187.03 212.564C187.03 213.244 187.03 213.925 187.03 214.606C187.03 215.968 187.066 217.294 187.101 218.619C187.173 219.945 187.208 221.235 187.279 222.489C187.351 223.779 187.458 224.998 187.529 226.252C187.6 227.47 187.778 228.689 187.849 229.871C187.885 230.48 187.956 231.054 188.028 231.627C188.099 232.2 188.17 232.774 188.241 233.347C188.348 234.494 188.526 235.604 188.704 236.715C188.776 237.253 188.847 237.79 188.954 238.328C189.061 238.865 189.132 239.403 189.239 239.904C189.417 240.944 189.595 241.983 189.809 242.986C190.023 243.989 190.201 244.957 190.379 245.889C190.593 246.82 190.806 247.752 190.984 248.648C191.163 249.544 191.412 250.404 191.626 251.264C191.839 252.124 192.018 252.948 192.267 253.736C192.73 255.313 193.086 256.818 193.514 258.179C193.728 258.86 193.906 259.541 194.119 260.15C194.298 260.795 194.511 261.369 194.725 261.978C195.117 263.124 195.438 264.164 195.794 265.095C196.114 266.027 196.399 266.851 196.684 267.568C196.969 268.284 197.183 268.858 197.361 269.359C197.718 270.327 197.931 270.829 197.931 270.829L197.575 271.223Z" fill="#D7D7D7"/>
<path d="M271.354 263.339C271.247 263.447 270.357 262.444 268.255 261.369C267.222 260.831 265.868 260.294 264.265 259.864C262.662 259.434 260.774 259.111 258.672 258.932C256.57 258.717 254.219 258.609 251.725 258.359C249.231 258.072 246.488 257.642 243.78 256.459C242.462 255.85 241.144 255.098 239.897 254.166C238.686 253.234 237.546 252.159 236.513 250.977C234.411 248.612 232.701 245.817 231.169 242.879C230.421 241.409 229.709 239.94 229.067 238.471C228.39 237.002 227.785 235.569 227.179 234.135C226.004 231.269 224.935 228.474 223.973 225.822C222.049 220.447 220.66 215.538 219.591 211.345C218.558 207.189 217.881 203.749 217.489 201.384C217.097 199.019 216.955 197.693 217.062 197.657C217.169 197.621 217.489 198.911 218.059 201.24C218.629 203.569 219.449 206.938 220.624 211.059C221.8 215.179 223.296 220.017 225.255 225.32C226.253 227.972 227.322 230.731 228.533 233.562C229.139 234.959 229.744 236.393 230.421 237.862C231.062 239.295 231.739 240.764 232.487 242.198C233.984 245.064 235.622 247.752 237.582 250.009C238.579 251.12 239.612 252.159 240.752 253.055C241.892 253.915 243.068 254.632 244.315 255.205C246.773 256.316 249.409 256.818 251.832 257.14C254.29 257.463 256.641 257.606 258.743 257.893C260.88 258.179 262.804 258.574 264.443 259.075C266.082 259.613 267.435 260.258 268.469 260.867C269.502 261.512 270.214 262.157 270.677 262.587C271.176 263.017 271.39 263.304 271.354 263.339ZM245.989 225.571C246.025 225.679 245.704 225.858 245.099 225.929C244.493 226.001 243.531 225.929 242.498 225.32C241.999 225.034 241.5 224.604 241.073 223.994C240.681 223.421 240.396 222.669 240.289 221.88C240.182 221.092 240.254 220.232 240.61 219.408C240.966 218.584 241.5 217.903 242.035 217.294C242.569 216.684 243.032 216.147 243.282 215.609C243.424 215.359 243.495 215.072 243.495 214.821C243.531 214.57 243.495 214.319 243.389 214.033C243.21 213.495 242.925 212.886 242.676 212.349C242.427 211.775 242.177 211.274 241.964 210.808C241.144 208.909 240.717 207.654 240.895 207.547C241.073 207.439 241.821 208.514 242.925 210.306C243.21 210.736 243.495 211.238 243.78 211.775C243.923 212.026 244.101 212.313 244.244 212.599C244.422 212.886 244.564 213.209 244.707 213.603C244.992 214.355 245.027 215.43 244.6 216.254C244.208 217.079 243.638 217.724 243.139 218.297C242.605 218.906 242.177 219.444 241.928 219.981C241.679 220.554 241.607 221.164 241.643 221.737C241.679 222.31 241.857 222.848 242.106 223.314C242.355 223.779 242.676 224.138 243.068 224.424C243.78 224.998 244.564 225.213 245.099 225.32C245.633 225.428 245.954 225.464 245.989 225.571Z" fill="#D7D7D7" stroke="#D7D7D7" stroke-width="0.559275" stroke-miterlimit="10"/>
<path d="M266.117 223.454C266.296 223.49 266.189 224.887 265.191 226.894C264.692 227.897 263.98 229.008 263.018 230.083C262.056 231.194 260.809 232.233 259.384 233.165C256.499 234.956 253.47 235.709 251.333 235.888C249.16 236.103 247.842 235.888 247.842 235.673C247.842 235.458 249.16 235.279 251.19 234.813C253.221 234.347 255.964 233.487 258.636 231.839C261.272 230.191 263.196 228.041 264.336 226.321C265.405 224.636 265.904 223.382 266.117 223.454ZM232.024 216.825C231.846 216.932 231.419 216.574 230.884 215.857C230.35 215.141 229.78 214.03 229.388 212.74C228.96 211.45 228.818 210.196 228.818 209.336C228.818 208.44 228.96 207.902 229.174 207.866C229.602 207.831 230.065 209.873 230.849 212.274C231.561 214.675 232.38 216.61 232.024 216.825ZM261.629 208.762C261.45 208.87 260.987 208.547 260.382 207.831C259.776 207.114 259.064 206.039 258.529 204.749C257.959 203.459 257.674 202.169 257.567 201.273C257.46 200.341 257.567 199.768 257.746 199.732C258.173 199.661 258.85 201.739 259.919 204.176C260.952 206.576 261.985 208.511 261.629 208.762ZM230.777 194.142C230.742 194.357 230.136 194.429 229.245 194.501C228.319 194.572 227.108 194.644 225.968 195.146C225.398 195.361 224.935 195.719 224.543 196.077C224.151 196.436 223.866 196.83 223.652 197.188C223.225 197.905 223.189 198.478 222.94 198.514C222.833 198.514 222.726 198.406 222.619 198.084C222.512 197.797 222.512 197.331 222.619 196.794C222.869 195.719 223.795 194.393 225.362 193.748C226.11 193.426 226.894 193.318 227.535 193.282C228.212 193.246 228.818 193.354 229.281 193.426C230.243 193.641 230.777 193.927 230.777 194.142ZM259.847 190.631C259.74 190.81 259.064 190.631 258.03 190.236C256.997 189.878 255.608 189.305 254.112 189.161C253.364 189.09 252.651 189.161 252.01 189.305C251.369 189.448 250.834 189.699 250.407 189.95C250.3 190.021 250.193 190.093 250.122 190.129C250.05 190.201 249.944 190.236 249.872 190.308C249.801 190.38 249.694 190.451 249.623 190.523L249.587 190.559C249.587 190.559 249.552 190.595 249.587 190.559H249.552C249.516 190.559 249.516 190.595 249.48 190.595C249.409 190.666 249.374 190.738 249.338 190.738C249.338 190.774 249.302 190.774 249.302 190.81C249.302 190.846 249.338 190.881 249.338 190.881C249.338 190.917 249.302 190.917 249.302 190.953C249.267 190.989 249.195 190.989 249.124 190.917C248.982 190.81 248.91 190.595 248.91 190.38C248.91 190.308 248.91 190.272 248.946 190.201C248.946 190.165 248.982 190.129 248.982 190.093V190.057C249.017 190.021 248.982 190.021 248.982 190.021V189.986C249.017 189.914 249.089 189.806 249.124 189.699C249.195 189.591 249.267 189.484 249.374 189.341C249.48 189.233 249.552 189.126 249.659 189.018C250.086 188.588 250.727 188.122 251.511 187.871C252.295 187.585 253.185 187.477 254.147 187.549C255.074 187.621 255.929 187.871 256.641 188.194C257.354 188.516 257.959 188.839 258.422 189.161C259.455 189.95 259.919 190.451 259.847 190.631Z" fill="#D7D7D7" stroke="#D7D7D7" stroke-width="0.559275" stroke-miterlimit="10"/>
<path d="M265.551 224.493C266.556 224.993 267.52 225.096 267.703 224.724C267.886 224.351 267.22 223.644 266.214 223.144C265.209 222.644 264.246 222.54 264.062 222.913C263.879 223.285 264.546 223.993 265.551 224.493Z" fill="#D7D7D7" stroke="#D7D7D7" stroke-width="0.559275" stroke-miterlimit="10"/>
<path d="M293.05 327.409C292.943 327.481 292.053 326.119 290.058 324.005C289.06 322.966 287.778 321.711 286.139 320.457C284.536 319.167 282.576 317.877 280.332 316.623C278.052 315.369 275.487 314.222 272.601 313.255C269.716 312.287 266.545 311.463 263.196 310.89C259.812 310.281 256.249 309.851 252.509 309.564C248.768 309.277 244.885 309.098 240.895 308.883C236.905 308.632 232.986 308.31 229.246 307.701C225.505 307.091 221.907 306.16 218.629 304.834C215.352 303.544 212.395 301.86 209.937 299.925C208.69 298.957 207.586 297.882 206.588 296.843C205.591 295.768 204.736 294.693 203.952 293.582C202.42 291.396 201.316 289.246 200.461 287.311C199.606 285.376 199.071 283.656 198.679 282.223C198.288 280.79 198.074 279.679 197.931 278.891C197.824 278.138 197.789 277.708 197.824 277.708C197.931 277.672 198.288 279.285 199.214 282.044C199.677 283.406 200.318 285.09 201.209 286.953C202.099 288.816 203.239 290.859 204.807 292.937C205.555 293.976 206.446 295.016 207.408 296.019C208.405 297.022 209.474 297.99 210.685 298.921C213.072 300.749 215.958 302.29 219.128 303.508C222.299 304.726 225.79 305.622 229.459 306.196C233.129 306.769 237.012 307.091 240.966 307.342C244.921 307.557 248.839 307.736 252.616 308.059C256.392 308.381 260.026 308.811 263.446 309.492C266.866 310.137 270.072 310.997 273.029 312.036C275.95 313.076 278.586 314.33 280.866 315.656C283.146 316.981 285.106 318.415 286.709 319.776C288.312 321.138 289.559 322.464 290.521 323.611C291.447 324.757 292.124 325.689 292.551 326.37C292.908 327.015 293.086 327.373 293.05 327.409ZM309.509 310.675C309.473 310.711 309.188 310.316 308.725 309.528C308.511 309.134 308.226 308.668 307.87 308.095C307.514 307.557 307.086 306.912 306.659 306.196C306.445 305.837 306.16 305.443 305.911 305.085C305.626 304.691 305.341 304.296 305.056 303.866C304.771 303.436 304.45 303.006 304.094 302.576C303.738 302.146 303.381 301.681 303.025 301.179C301.493 299.316 299.712 297.201 297.539 295.051C295.401 292.901 292.908 290.608 290.164 288.315C287.386 286.021 284.358 283.692 281.08 281.327C277.803 278.962 274.311 276.561 270.642 274.125C266.973 271.724 263.089 269.323 258.993 267.173C254.86 265.059 250.656 263.339 246.488 262.049C242.32 260.759 238.188 259.863 234.198 259.326C226.253 258.286 218.879 258.322 213.072 259.935C210.151 260.723 207.657 261.87 205.662 263.196C204.664 263.841 203.774 264.521 202.99 265.202C202.242 265.883 201.565 266.564 201.031 267.209C199.926 268.499 199.214 269.61 198.786 270.398C198.537 270.792 198.394 271.079 198.288 271.294C198.181 271.509 198.109 271.581 198.074 271.581C198.038 271.581 198.074 271.437 198.145 271.222C198.216 271.007 198.323 270.649 198.501 270.255C198.858 269.431 199.499 268.212 200.568 266.815C201.102 266.134 201.743 265.417 202.527 264.665C203.311 263.948 204.201 263.196 205.199 262.479C207.229 261.046 209.794 259.791 212.787 258.896C214.283 258.466 215.886 258.107 217.561 257.856C219.235 257.606 220.981 257.462 222.833 257.391C224.65 257.319 226.538 257.355 228.462 257.426C230.386 257.498 232.381 257.677 234.411 257.928C238.473 258.43 242.676 259.326 246.951 260.616C251.191 261.906 255.501 263.661 259.705 265.811C263.909 267.961 267.792 270.398 271.497 272.871C275.166 275.343 278.658 277.78 281.935 280.181C285.213 282.581 288.276 284.982 291.019 287.347C293.763 289.712 296.221 292.041 298.358 294.299C300.496 296.521 302.277 298.706 303.738 300.677C304.094 301.179 304.45 301.645 304.771 302.111C305.091 302.576 305.412 303.006 305.697 303.472C305.982 303.902 306.267 304.332 306.516 304.762C306.766 305.156 307.015 305.551 307.229 305.945C307.656 306.697 308.013 307.378 308.333 307.951C308.618 308.561 308.868 309.062 309.046 309.456C309.402 310.209 309.58 310.639 309.509 310.675Z" fill="#D7D7D7" stroke="#D7D7D7" stroke-width="0.559275" stroke-miterlimit="10"/>
<path d="M311.254 313.323C311.254 313.431 310.827 313.431 310.15 313.681C309.473 313.932 308.582 314.434 307.514 315.294C306.445 316.118 305.234 317.121 303.987 318.376C302.74 319.63 301.493 321.099 300.317 322.747C299.142 324.431 298.18 326.116 297.396 327.692C297.004 328.481 296.648 329.269 296.363 329.986C296.22 330.344 296.042 330.774 295.757 331.132C295.615 331.311 295.472 331.491 295.223 331.67C295.009 331.813 294.724 331.921 294.475 331.956C294.225 331.992 293.976 331.921 293.727 331.813C293.513 331.706 293.37 331.598 293.228 331.455C292.979 331.204 292.8 330.953 292.622 330.738C292.302 330.272 292.088 329.806 291.945 329.412C291.696 328.624 291.732 328.194 291.803 328.158C291.91 328.122 292.088 328.516 292.48 329.161C292.694 329.484 292.943 329.842 293.299 330.201C293.477 330.38 293.691 330.595 293.869 330.738C293.976 330.81 294.083 330.881 294.154 330.881C294.225 330.917 294.297 330.917 294.404 330.881C294.546 330.846 294.653 330.774 294.831 330.487C294.974 330.236 295.08 329.914 295.223 329.556C295.508 328.767 295.793 327.943 296.185 327.119C296.933 325.435 297.93 323.643 299.142 321.887C300.389 320.131 301.742 318.626 303.096 317.372C304.45 316.118 305.804 315.115 306.979 314.398C308.155 313.646 309.259 313.18 310.079 313.108C310.827 313.037 311.29 313.251 311.254 313.323Z" fill="#D7D7D7" stroke="#D7D7D7" stroke-width="0.559275" stroke-miterlimit="10"/>
<path d="M303.31 345.896C302.954 346.111 300.781 342.814 298.501 338.55C297.361 336.436 296.399 334.465 295.757 332.996C295.615 332.638 295.472 332.315 295.366 331.993C295.259 331.706 295.116 331.383 295.116 331.097C295.116 330.81 295.187 330.595 295.33 330.488C295.437 330.38 295.579 330.416 295.615 330.416C295.651 330.452 295.651 330.488 295.615 330.559C295.579 330.667 295.615 330.81 295.686 330.953C295.757 331.133 295.9 331.276 296.078 331.563C296.256 331.813 296.47 332.1 296.684 332.458C297.539 333.784 298.679 335.683 299.819 337.798C302.134 342.098 303.666 345.717 303.31 345.896Z" fill="#D7D7D7" stroke="#D7D7D7" stroke-width="0.559275" stroke-miterlimit="10"/>
<path d="M297.788 365.356C297.717 365.392 297.467 365.177 297.254 364.639C297.04 364.138 296.862 363.278 296.969 362.274C297.04 361.271 297.361 360.124 297.788 358.942C298.216 357.759 298.75 356.505 299.32 355.215C300.46 352.599 301.457 350.27 302.063 348.514C302.704 346.794 302.989 345.684 303.239 345.684C303.417 345.719 303.488 346.902 303.096 348.801C302.74 350.664 301.849 353.173 300.709 355.789C300.139 357.114 299.569 358.333 299.071 359.444C298.572 360.554 298.216 361.558 298.002 362.418C297.788 363.278 297.788 363.994 297.824 364.46C297.824 364.998 297.859 365.284 297.788 365.356ZM308.903 351.632C309.259 351.811 307.763 355.323 305.162 359.193C304.521 360.16 303.844 361.056 303.239 361.844C302.918 362.239 302.633 362.597 302.348 362.955C302.063 363.314 301.742 363.636 301.457 363.887C300.852 364.424 300.246 364.783 299.783 364.854C299.32 364.962 299.071 364.854 299.035 364.783C299.035 364.675 299.249 364.568 299.534 364.317C299.854 364.066 300.246 363.708 300.674 363.134C300.887 362.848 301.101 362.525 301.351 362.167C301.6 361.809 301.849 361.414 302.134 360.984C302.704 360.16 303.31 359.264 303.951 358.297C306.481 354.534 308.511 351.417 308.903 351.632ZM308.974 369.226C308.796 369.047 309.722 368.008 310.791 366.073C311.896 364.174 313.071 361.379 313.784 358.082C314.496 354.785 314.674 351.704 314.852 349.482C314.995 347.26 315.137 345.827 315.351 345.827C315.565 345.827 315.814 347.224 315.921 349.482C316.028 351.739 315.992 354.929 315.244 358.404C314.852 360.124 314.318 361.737 313.712 363.134C313.071 364.532 312.359 365.714 311.682 366.646C310.292 368.545 309.117 369.369 308.974 369.226ZM312.822 372.738C312.786 372.63 313.142 372.451 313.641 372.093C314.176 371.734 314.888 371.161 315.565 370.265C316.242 369.369 316.847 368.187 317.311 366.718C317.56 366.001 317.774 365.213 317.987 364.389C318.201 363.564 318.451 362.704 318.664 361.844C320.41 354.857 320.98 348.98 321.407 349.016C321.621 349.016 321.728 350.521 321.586 352.922C321.443 355.323 321.016 358.655 320.125 362.203C319.911 363.099 319.662 363.959 319.412 364.783C319.163 365.607 318.914 366.431 318.593 367.184C318.023 368.689 317.239 370.014 316.349 370.946C315.458 371.878 314.532 372.379 313.891 372.594C313.249 372.881 312.857 372.845 312.822 372.738ZM320.339 368.223C320.196 368.044 320.98 367.219 321.977 365.679C322.975 364.174 324.115 361.916 324.899 359.264C325.682 356.613 326.039 354.069 326.359 352.241C326.644 350.414 326.858 349.231 327.072 349.267C327.286 349.267 327.428 350.449 327.428 352.349C327.392 354.248 327.179 356.899 326.359 359.73C325.54 362.561 324.151 364.926 322.832 366.359C321.514 367.793 320.446 368.366 320.339 368.223Z" fill="#D7D7D7" stroke="#D7D7D7" stroke-width="0.559275" stroke-miterlimit="10"/>
<path d="M329.53 358.083C329.495 358.083 329.495 357.868 329.53 357.545C329.566 357.366 329.601 357.187 329.637 356.936C329.673 356.829 329.673 356.685 329.708 356.542C329.744 356.399 329.744 356.255 329.78 356.112C329.993 354.894 330.207 353.138 330.207 350.952C330.207 348.766 329.958 346.15 329.281 343.355C328.64 340.56 327.535 337.514 326.075 334.54C324.578 331.53 322.904 328.843 321.23 326.442C319.555 324.041 317.952 321.963 316.598 320.207C313.855 316.731 312.181 314.545 312.323 314.402C312.466 314.259 314.461 316.194 317.418 319.526C318.878 321.21 320.624 323.253 322.37 325.618C324.115 328.019 325.896 330.778 327.428 333.859C328.96 336.977 330.029 340.094 330.635 343.069C331.24 346.007 331.418 348.73 331.276 351.024C331.133 353.281 330.741 355.109 330.35 356.291C330.314 356.435 330.243 356.578 330.207 356.721C330.171 356.864 330.1 356.972 330.065 357.079C329.958 357.294 329.886 357.51 329.815 357.653C329.673 357.94 329.566 358.083 329.53 358.083ZM306.018 368.94C305.911 368.976 305.804 368.797 305.626 368.475C305.59 368.403 305.555 368.295 305.519 368.188C305.483 368.08 305.483 367.973 305.448 367.83C305.412 367.579 305.341 367.292 305.376 366.934C305.376 366.755 305.376 366.611 305.376 366.432C305.412 366.253 305.412 366.074 305.448 365.895C305.483 365.5 305.59 365.142 305.697 364.712C305.911 363.888 306.231 363.064 306.588 362.204C306.944 361.344 307.3 360.555 307.585 359.839C307.728 359.48 307.87 359.158 307.941 358.835C307.977 358.692 308.048 358.513 308.084 358.37C308.12 358.226 308.155 358.083 308.191 357.94C308.476 356.829 308.476 356.112 308.69 356.04C308.796 356.005 308.903 356.184 309.046 356.542C309.081 356.614 309.117 356.721 309.153 356.829C309.188 356.936 309.188 357.044 309.224 357.187C309.26 357.438 309.295 357.76 309.26 358.047C309.26 358.226 309.26 358.37 309.224 358.549C309.188 358.728 309.188 358.907 309.153 359.086C309.117 359.48 309.01 359.839 308.903 360.269C308.654 361.057 308.333 361.917 307.977 362.777C307.621 363.637 307.3 364.425 307.015 365.142C306.908 365.5 306.766 365.823 306.695 366.145C306.659 366.289 306.588 366.468 306.552 366.611C306.516 366.755 306.481 366.898 306.445 367.041C306.196 368.116 306.231 368.869 306.018 368.94Z" fill="#D7D7D7" stroke="#D7D7D7" stroke-width="0.559275" stroke-miterlimit="10"/>
<path d="M327.304 358.656C326.169 359.89 325.494 361.12 325.797 361.403C326.101 361.685 327.267 360.912 328.403 359.677C329.538 358.443 330.213 357.213 329.91 356.93C329.606 356.648 328.44 357.421 327.304 358.656Z" fill="#D7D7D7" stroke="#D7D7D7" stroke-width="0.559275" stroke-miterlimit="10"/>
<path d="M312.751 271.759C312.679 271.794 312.109 271.006 311.896 269.25C311.789 268.39 311.824 267.315 312.038 266.133C312.252 264.914 312.679 263.589 313.285 262.191C313.891 260.794 314.674 259.36 315.387 257.784C316.099 256.243 316.812 254.523 317.026 252.695C317.132 251.799 317.097 250.832 316.919 249.9C316.741 248.969 316.384 248.073 315.85 247.284C315.565 246.89 315.28 246.532 314.888 246.245C314.532 245.958 314.104 245.708 313.677 245.528C312.786 245.17 311.753 245.098 310.684 245.17C309.616 245.242 308.511 245.421 307.478 245.636C306.445 245.887 305.554 246.209 304.735 246.783C303.916 247.32 303.203 248.001 302.526 248.754C302.206 249.112 301.885 249.506 301.564 249.9C301.244 250.294 300.959 250.689 300.674 251.047C298.465 254.2 297.147 257.461 296.434 260.292C296.078 261.725 295.829 263.015 295.722 264.162C295.651 264.735 295.615 265.273 295.579 265.774C295.544 266.276 295.544 266.742 295.544 267.136C295.544 267.96 295.615 268.569 295.757 268.964C295.9 269.358 296.007 269.573 295.971 269.609C295.936 269.644 295.722 269.501 295.472 269.107C295.223 268.713 295.009 268.032 294.938 267.172C294.902 266.742 294.867 266.276 294.867 265.774C294.867 265.273 294.831 264.699 294.902 264.09C294.938 262.872 295.116 261.51 295.401 260.041C296.007 257.067 297.254 253.591 299.534 250.223C299.819 249.829 300.104 249.399 300.424 248.969C300.745 248.574 301.066 248.144 301.422 247.75C302.134 246.962 302.918 246.174 303.88 245.493C304.343 245.17 304.877 244.884 305.447 244.669C305.982 244.454 306.552 244.274 307.122 244.131C308.262 243.88 309.366 243.701 310.542 243.629C311.717 243.558 312.964 243.629 314.176 244.095C314.746 244.31 315.316 244.669 315.779 245.027C316.277 245.421 316.669 245.887 316.99 246.389C317.667 247.392 318.059 248.503 318.237 249.578C318.415 250.688 318.451 251.763 318.308 252.803C317.987 254.881 317.204 256.673 316.384 258.285C315.565 259.862 314.781 261.259 314.104 262.585C313.463 263.875 313 265.129 312.715 266.24C312.43 267.351 312.323 268.354 312.323 269.143C312.501 270.827 312.857 271.723 312.751 271.759ZM286.887 274.984C286.816 275.163 284.856 274.41 281.935 272.762C280.474 271.938 278.8 270.827 276.983 269.501C276.092 268.82 275.166 268.104 274.24 267.315C273.314 266.527 272.387 265.739 271.426 264.914C269.502 263.338 267.542 262.012 265.547 261.367C263.588 260.686 261.664 260.614 260.168 261.009C258.672 261.367 257.674 262.227 257.176 262.944C256.677 263.66 256.641 264.198 256.534 264.198C256.499 264.198 256.427 264.054 256.427 263.804C256.427 263.553 256.463 263.159 256.677 262.693C257.069 261.761 258.137 260.579 259.847 260.005C261.522 259.396 263.766 259.36 265.975 260.077C267.079 260.435 268.184 260.937 269.252 261.582C270.321 262.227 271.354 262.979 272.352 263.804C273.349 264.628 274.276 265.452 275.166 266.24C276.057 267.029 276.947 267.745 277.802 268.426C279.512 269.788 281.116 270.934 282.469 271.866C285.248 273.729 286.994 274.769 286.887 274.984Z" fill="#D7D7D7" stroke="#D7D7D7" stroke-width="0.559275" stroke-miterlimit="10"/>
<path d="M368.539 274.66C368.504 274.66 368.397 274.481 368.254 274.087C368.112 273.693 367.898 273.119 367.613 272.367C367.043 270.898 366.117 268.784 364.62 266.419C363.124 264.054 360.987 261.438 358.137 259.037C355.322 256.672 351.796 254.522 347.77 253.16C345.775 252.479 343.744 252.049 341.749 251.834C339.754 251.619 337.83 251.655 335.978 251.799C332.273 252.121 328.924 252.766 326.11 253.089C324.685 253.268 323.402 253.375 322.262 253.411C321.122 253.447 320.125 253.447 319.341 253.375C318.949 253.339 318.593 253.304 318.272 253.268C317.952 253.232 317.702 253.16 317.489 253.124C317.061 253.053 316.847 252.981 316.847 252.909C316.847 252.874 317.061 252.838 317.489 252.802C317.702 252.802 317.952 252.802 318.272 252.802C318.593 252.802 318.914 252.766 319.305 252.766C320.089 252.73 321.051 252.659 322.155 252.551C323.26 252.408 324.542 252.264 325.932 252.014C327.321 251.763 328.853 251.476 330.492 251.189C332.13 250.903 333.912 250.58 335.836 250.401C336.299 250.365 336.797 250.329 337.296 250.294C337.795 250.258 338.294 250.258 338.792 250.222C339.291 250.222 339.826 250.222 340.324 250.258C340.823 250.294 341.357 250.294 341.892 250.365C343.994 250.58 346.131 251.01 348.233 251.727C352.472 253.124 356.142 255.418 359.027 257.962C361.913 260.506 364.051 263.301 365.511 265.845C366.972 268.389 367.755 270.611 368.147 272.188C368.325 272.976 368.468 273.585 368.504 274.015C368.575 274.409 368.575 274.66 368.539 274.66ZM292.694 215.249C292.8 215.177 293.192 215.786 294.261 216.18C294.796 216.395 295.508 216.503 296.292 216.395C297.076 216.288 297.966 216.037 298.75 215.392C299.534 214.747 300.21 213.851 300.674 212.704C301.137 211.594 301.422 210.304 301.529 208.87C301.635 207.473 301.6 205.968 301.422 204.427C301.244 202.886 301.03 201.238 300.674 199.661C300.317 198.049 299.819 196.544 299.106 195.218C298.75 194.573 298.358 193.964 297.895 193.426C297.432 192.889 296.933 192.423 296.363 192.029C295.294 191.24 294.083 190.739 292.907 190.595C292.337 190.524 291.767 190.56 291.233 190.667C290.699 190.739 290.235 190.954 289.808 191.205C289.38 191.455 288.989 191.778 288.668 192.064C288.347 192.387 288.062 192.71 287.849 193.068C287.421 193.749 287.207 194.429 287.136 195.003C287.065 195.289 287.1 195.54 287.1 195.791C287.136 196.006 287.136 196.221 287.136 196.364C287.207 196.687 287.207 196.866 287.172 196.866C287.136 196.866 287.029 196.759 286.851 196.436C286.78 196.293 286.709 196.078 286.637 195.827C286.602 195.576 286.53 195.289 286.53 194.967C286.53 194.322 286.673 193.498 287.1 192.638C287.314 192.208 287.599 191.814 287.955 191.384C288.312 190.99 288.739 190.595 289.238 190.273C289.737 189.95 290.307 189.664 290.984 189.52C291.625 189.377 292.302 189.305 293.014 189.341C294.439 189.449 295.864 189.986 297.147 190.882C297.788 191.312 298.394 191.85 298.928 192.459C299.462 193.068 299.961 193.785 300.353 194.501C301.172 195.97 301.707 197.619 302.099 199.303C302.455 200.987 302.669 202.635 302.847 204.248C302.989 205.86 303.025 207.437 302.847 208.978C302.704 210.483 302.348 211.916 301.742 213.17C301.172 214.424 300.317 215.5 299.32 216.18C298.322 216.897 297.218 217.148 296.292 217.184C295.33 217.184 294.546 216.969 293.976 216.646C293.406 216.324 293.014 215.965 292.836 215.679C292.729 215.428 292.658 215.284 292.694 215.249ZM157.14 390.545C157.14 390.545 157.034 390.509 156.82 390.438C156.606 390.366 156.321 390.187 155.965 389.972C155.252 389.506 154.219 388.718 153.186 387.356C152.153 385.994 151.155 384.131 150.372 381.766C149.98 380.584 149.659 379.294 149.41 377.896C149.339 377.538 149.267 377.179 149.196 376.821C149.16 376.463 149.089 376.104 149.054 375.71C149.018 375.352 148.947 374.958 148.911 374.564C148.875 374.169 148.84 373.775 148.804 373.381C148.484 370.192 148.377 366.609 148.377 362.739C148.341 358.869 148.412 354.64 148.02 350.161C147.807 347.904 147.486 345.61 146.952 343.281C146.417 340.952 145.598 338.623 144.244 336.509C143.567 335.469 142.748 334.502 141.786 333.678C141.572 333.463 141.287 333.284 141.038 333.104C140.789 332.925 140.504 332.746 140.219 332.603C139.684 332.316 139.079 332.065 138.473 331.922C137.262 331.599 135.908 331.564 134.625 331.85C133.343 332.137 132.132 332.674 131.17 333.57C130.244 334.502 129.638 335.684 129.567 337.046C129.46 338.408 129.674 339.913 129.495 341.489C129.46 341.669 129.424 341.884 129.389 342.099C129.317 342.314 129.282 342.493 129.21 342.708C129.068 343.102 128.854 343.46 128.64 343.819C128.391 344.177 128.106 344.499 127.785 344.786C127.465 345.073 127.073 345.324 126.61 345.467C126.147 345.61 125.648 345.646 125.185 345.539C124.722 345.431 124.294 345.18 123.938 344.894C123.261 344.284 122.834 343.568 122.442 342.887C122.085 342.206 121.694 341.489 121.337 340.773C120.981 340.056 120.696 339.304 120.34 338.587C119.984 337.87 119.77 337.082 119.449 336.329C119.307 335.935 119.164 335.577 119.022 335.183C118.915 334.789 118.772 334.394 118.665 334C117.668 330.883 116.955 327.658 116.279 324.361C115.602 321.064 114.996 317.732 114.212 314.364C113.429 310.995 112.538 307.627 111.22 304.366C110.864 303.542 110.507 302.754 110.151 301.965L110.009 301.679L109.866 301.392L109.545 300.819C109.332 300.424 109.118 300.03 108.904 299.636C108.049 298.095 107.016 296.626 105.769 295.408C105.128 294.799 104.451 294.261 103.703 293.867C103.347 293.652 102.955 293.473 102.563 293.329C102.171 293.222 101.744 293.079 101.352 293.043C99.713 292.792 97.8961 293.186 96.6849 294.297C96.1149 294.834 95.6874 295.587 95.438 296.375C95.1886 297.164 95.153 298.059 95.1886 298.991C95.2599 300.819 95.6517 302.718 95.6874 304.76C95.6874 305.262 95.6517 305.764 95.6161 306.301C95.5449 306.839 95.4024 307.412 95.0461 307.985C94.9392 308.129 94.8324 308.236 94.7255 308.344C94.6186 308.451 94.5117 308.559 94.3336 308.666C94.1911 308.738 94.0486 308.845 93.8705 308.917C93.6924 308.989 93.5499 309.024 93.3717 309.06C92.6949 309.168 92.0536 308.989 91.5549 308.738C91.0205 308.487 90.593 308.164 90.2011 307.806C89.8092 307.448 89.4174 307.054 89.0967 306.659C88.9186 306.444 88.7761 306.229 88.6336 306.014L88.4199 305.656L88.2417 305.334L87.4936 304.044C83.5036 297.235 79.6205 290.14 75.8442 282.866C72.068 275.592 68.3986 268.067 64.8717 260.363C63.0905 256.529 61.3805 252.587 59.6705 248.645C57.9249 244.775 56.0011 240.905 53.1511 237.788C52.4386 237.035 51.7261 236.319 50.9067 235.709C50.123 235.1 49.268 234.563 48.3417 234.204C46.5605 233.416 44.5299 233.309 42.8555 234.097C41.1455 234.849 39.7561 236.39 38.7942 238.074C38.2955 238.934 37.9036 239.83 37.583 240.798C37.4405 241.264 37.2624 241.765 37.1555 242.231C37.0842 242.482 37.013 242.697 36.9774 242.948L36.8349 243.7C36.443 245.671 36.3717 247.678 36.443 249.684C36.5142 251.691 36.7992 253.698 37.1911 255.669C37.583 257.639 38.0817 259.574 38.6874 261.509L39.1149 262.943C39.2574 263.409 39.4355 263.91 39.578 264.376C39.8986 265.344 40.2192 266.275 40.5755 267.207C43.3186 274.696 46.8455 281.755 50.4436 288.564C52.2605 291.968 54.0774 295.336 55.8586 298.669C57.8892 302.431 59.8842 306.122 61.8792 309.813C58.6017 309.275 55.3599 308.702 52.118 308.164C51.4411 308.057 50.8711 308.021 50.4792 308.236C50.0517 308.415 49.7667 308.881 49.553 309.419C49.3749 309.992 49.3036 310.601 49.268 311.246C49.268 311.891 49.3036 312.572 49.3392 313.253C49.7311 318.628 51.548 323.752 54.0061 328.303C56.4286 332.889 59.4924 337.01 62.6986 340.809C65.9049 344.607 69.2536 348.154 72.3886 351.666C73.9561 353.422 75.488 355.178 76.9486 356.969C77.3049 357.435 77.6611 357.865 78.0174 358.295C78.3736 358.761 78.7299 359.191 79.0505 359.657C79.7274 360.553 80.4042 361.484 80.9742 362.488C81.5442 363.491 81.9717 364.566 82.1855 365.749C82.3992 366.931 82.2924 368.114 81.9361 369.224C81.5442 370.335 80.8317 371.339 79.7986 371.948C79.2999 372.234 78.7299 372.449 78.1599 372.557C77.5899 372.664 77.0199 372.629 76.4855 372.593C74.3124 372.342 72.4599 371.267 70.6786 370.55C69.788 370.228 68.8617 369.941 67.9711 369.869C67.508 369.834 67.0805 369.834 66.653 369.869C66.2255 369.941 65.798 370.049 65.4417 370.228C64.6936 370.586 64.1592 371.267 63.8742 372.055C63.5892 372.844 63.5536 373.704 63.6249 374.564C63.6961 375.424 63.8742 376.284 64.1236 377.108C64.3374 377.968 64.6224 378.756 64.9074 379.58C66.0474 382.805 67.6149 385.636 69.3605 388.145C70.2511 389.399 71.1417 390.545 72.1036 391.62C73.0299 392.695 73.9917 393.699 74.9536 394.63C78.8011 398.321 82.613 400.901 85.7836 402.8C88.9899 404.699 91.5549 405.918 93.3005 406.742C94.1911 407.136 94.8324 407.459 95.2955 407.638C95.7586 407.853 95.9724 407.96 95.9724 407.96C95.9724 407.996 95.723 407.889 95.2599 407.745C94.7967 407.602 94.1199 407.315 93.2292 406.957C91.448 406.204 88.8117 405.058 85.5699 403.195C82.328 401.331 78.4449 398.787 74.4905 395.096C73.493 394.164 72.5311 393.161 71.5692 392.086C70.6074 391.011 69.6811 389.829 68.7549 388.574C66.9736 386.03 65.2992 383.164 64.1236 379.867C63.8386 379.043 63.5536 378.219 63.3042 377.359C63.0549 376.499 62.8411 375.603 62.7342 374.671C62.663 373.739 62.663 372.736 63.0192 371.769C63.3399 370.801 64.0524 369.905 65.0142 369.439C65.4774 369.189 66.0117 369.045 66.5105 368.974C67.0449 368.902 67.5436 368.902 68.0424 368.938C69.0755 369.045 70.0374 369.296 70.9992 369.654C71.9611 370.013 72.8517 370.479 73.7424 370.837C74.6686 371.195 75.5949 371.518 76.5567 371.589C77.0199 371.625 77.483 371.625 77.9461 371.554C78.4092 371.482 78.8367 371.303 79.2286 371.088C80.0124 370.622 80.5824 369.834 80.903 368.902C81.2236 367.97 81.2949 366.967 81.1167 365.964C80.9386 364.96 80.5111 363.993 80.0124 363.061C79.478 362.129 78.8367 361.234 78.1599 360.374C77.8036 359.944 77.483 359.478 77.1267 359.048C76.7705 358.618 76.4142 358.152 76.058 357.722C74.5974 355.966 73.1011 354.21 71.498 352.454C68.363 348.943 64.9786 345.431 61.7367 341.597C58.4949 337.763 55.3599 333.606 52.8305 328.912C51.5836 326.547 50.4792 324.074 49.6242 321.494C48.7692 318.879 48.1992 316.155 47.9855 313.36C47.9499 312.644 47.9142 311.963 47.9142 311.246C47.9142 310.494 48.0211 309.741 48.2705 308.989C48.413 308.594 48.5911 308.236 48.8405 307.878C49.0899 307.519 49.4461 307.197 49.8736 307.018C50.3011 306.803 50.7642 306.731 51.1917 306.731C51.6192 306.731 52.0111 306.803 52.3317 306.839C54.6117 307.233 56.9274 307.591 59.2786 307.985C57.7467 305.154 56.1792 302.288 54.6117 299.385C52.7949 296.053 50.978 292.72 49.1611 289.28C45.5274 282.436 42.0005 275.341 39.1861 267.744C38.8299 266.777 38.4736 265.845 38.1886 264.878C38.0461 264.412 37.868 263.91 37.7255 263.444L37.2624 261.975C36.6567 260.04 36.1224 258.034 35.7305 255.991C35.3386 253.949 35.0536 251.87 34.9467 249.792C34.8399 247.678 34.9467 245.564 35.3386 243.449L35.4811 242.661C35.5524 242.41 35.6236 242.124 35.6592 241.873C35.7661 241.335 35.9442 240.834 36.1224 240.332C36.443 239.293 36.9061 238.289 37.4405 237.358C37.9749 236.426 38.6517 235.494 39.4355 234.706C40.2192 233.918 41.1455 233.237 42.2142 232.735C42.7486 232.484 43.283 232.341 43.853 232.198C44.423 232.09 44.993 232.019 45.5986 232.054C46.7742 232.09 47.8786 232.377 48.9117 232.807C49.9449 233.237 50.9067 233.846 51.7974 234.491C52.688 235.172 53.4717 235.924 54.2199 236.749C54.968 237.573 55.6805 238.469 56.3217 239.364C56.963 240.26 57.533 241.228 58.103 242.159C59.2074 244.059 60.1336 246.029 61.0242 248C62.7342 251.942 64.4442 255.848 66.2255 259.682C69.7167 267.386 73.3861 274.875 77.1624 282.149C80.9386 289.424 84.7861 296.483 88.7405 303.291L89.4886 304.581L89.6667 304.904L89.8449 305.19C89.9517 305.369 90.0942 305.549 90.2367 305.728C90.5217 306.086 90.8067 306.409 91.163 306.695C91.4836 306.982 91.8399 307.233 92.1961 307.412C92.5524 307.591 92.9086 307.663 93.1936 307.627C93.2649 307.627 93.3361 307.591 93.4074 307.591C93.4786 307.591 93.5142 307.519 93.5855 307.484C93.6567 307.448 93.6924 307.376 93.7636 307.34C93.8349 307.304 93.8705 307.233 93.9061 307.161C94.2624 306.659 94.298 305.656 94.298 304.76C94.298 302.933 93.9061 301.034 93.7992 299.027C93.7636 298.024 93.7992 296.984 94.1199 295.981C94.4049 294.978 94.9749 294.01 95.7586 293.258C96.5424 292.541 97.5399 292.039 98.5374 291.789C99.5349 291.538 100.568 291.502 101.565 291.645C102.064 291.717 102.563 291.86 103.026 292.004C103.489 292.183 103.952 292.362 104.38 292.613C105.235 293.079 106.019 293.688 106.731 294.369C108.12 295.73 109.189 297.271 110.08 298.884C110.294 299.278 110.507 299.708 110.721 300.102L111.042 300.711L111.22 300.998L111.362 301.32C111.719 302.144 112.11 302.969 112.467 303.829C113.82 307.197 114.747 310.637 115.495 314.041C116.243 317.445 116.884 320.814 117.525 324.074C118.167 327.371 118.915 330.56 119.841 333.606C119.948 334 120.09 334.359 120.197 334.753C120.34 335.111 120.482 335.505 120.589 335.864C120.874 336.616 121.088 337.369 121.444 338.085C121.765 338.802 122.05 339.519 122.37 340.235C122.727 340.916 123.083 341.597 123.439 342.278C123.795 342.959 124.187 343.568 124.65 343.998C125.114 344.392 125.684 344.535 126.254 344.356C126.788 344.177 127.322 343.747 127.714 343.174C127.892 342.887 128.07 342.6 128.177 342.314C128.284 341.991 128.391 341.704 128.427 341.346C128.605 339.984 128.391 338.479 128.534 336.939C128.569 336.544 128.64 336.15 128.712 335.792L128.89 335.219L128.997 334.932C129.032 334.824 129.068 334.753 129.139 334.681L129.424 334.144C129.531 333.964 129.638 333.821 129.745 333.642C129.959 333.319 130.244 333.033 130.493 332.746C131.633 331.671 133.058 331.062 134.483 330.775C135.908 330.489 137.404 330.524 138.794 330.883C139.506 331.062 140.147 331.349 140.789 331.671C141.074 331.85 141.394 332.029 141.679 332.244C141.964 332.459 142.249 332.639 142.499 332.889C143.532 333.785 144.422 334.824 145.099 335.971C146.524 338.229 147.308 340.665 147.878 343.066C148.377 345.467 148.697 347.796 148.911 350.089C149.267 354.64 149.16 358.869 149.125 362.739C149.089 366.609 149.125 370.156 149.41 373.309C149.445 373.704 149.481 374.098 149.517 374.492C149.552 374.886 149.624 375.244 149.659 375.639C149.695 375.997 149.766 376.391 149.802 376.749C149.873 377.108 149.909 377.466 149.98 377.789C150.194 379.186 150.514 380.44 150.835 381.623C151.547 383.952 152.474 385.815 153.435 387.141C154.397 388.503 155.395 389.327 156.072 389.829C156.428 390.079 156.677 390.259 156.891 390.366C157.069 390.474 157.14 390.509 157.14 390.545Z" fill="#D7D7D7" stroke="#D7D7D7" stroke-width="0.559275" stroke-miterlimit="10"/>
<path d="M195.758 373.846C195.723 373.881 195.58 373.738 195.295 373.451C195.224 373.38 195.153 373.308 195.046 373.201C194.974 373.093 194.868 372.986 194.761 372.878C194.547 372.663 194.333 372.376 194.119 372.054C193.193 370.764 192.053 368.614 191.412 365.604C191.091 364.099 190.842 362.451 190.664 360.587C190.486 358.76 190.414 356.753 190.272 354.603C190.129 352.453 189.987 350.196 189.559 347.831C189.346 346.648 189.061 345.466 188.669 344.247C188.277 343.065 187.778 341.846 187.101 340.771C186.424 339.696 185.498 338.693 184.465 337.905C183.931 337.511 183.361 337.152 182.755 336.901L182.541 336.794L182.292 336.722C182.149 336.686 181.971 336.615 181.829 336.579C181.508 336.507 181.188 336.4 180.867 336.4C180.546 336.328 180.226 336.364 179.869 336.4C179.549 336.471 179.228 336.471 178.908 336.615C178.266 336.83 177.732 337.152 177.162 337.654C176.592 338.12 175.986 338.693 175.131 339.051C174.704 339.231 174.276 339.338 173.813 339.374C173.35 339.41 172.923 339.41 172.495 339.338C171.604 339.195 170.785 338.872 170.037 338.406C169.289 337.941 168.648 337.296 168.113 336.579C167.044 335.146 166.439 333.497 165.976 331.849C165.014 328.552 164.301 325.148 163.589 321.636C162.841 318.161 162.093 314.577 160.953 311.066C160.418 309.31 159.706 307.59 158.958 305.87C158.138 304.186 157.212 302.573 156.108 301.032C155.039 299.491 153.721 298.166 152.011 297.951C151.12 297.807 150.123 297.807 149.018 297.556C147.949 297.306 146.952 296.84 146.061 296.231C144.28 295.012 142.926 293.256 141.964 291.393C141.003 289.494 140.361 287.487 139.791 285.516C139.221 283.546 138.651 281.611 137.939 279.711C137.262 277.812 136.514 275.949 135.694 274.157C134.056 270.538 132.168 267.098 130.066 263.909C129.816 263.515 129.531 263.121 129.282 262.726C128.997 262.332 128.748 261.938 128.463 261.544C127.893 260.756 127.358 260.003 126.753 259.358C126.147 258.713 125.47 258.104 124.758 257.746C124.045 257.351 123.261 257.244 122.549 257.423C121.836 257.602 121.159 258.104 120.554 258.677C120.269 258.964 119.984 259.322 119.734 259.681C119.485 260.039 119.2 260.361 119.022 260.756C118.131 262.225 117.561 263.909 117.276 265.593C116.956 267.277 116.92 268.997 116.991 270.681C117.063 272.366 117.312 274.05 117.597 275.698C117.918 277.346 118.309 278.923 118.737 280.5C119.164 282.076 119.592 283.617 120.055 285.122C121.908 291.178 123.974 296.661 126.147 301.606C127.216 304.078 128.32 306.371 129.389 308.557C129.923 309.632 130.458 310.671 130.992 311.675C131.277 312.176 131.526 312.678 131.776 313.144C132.025 313.646 132.31 314.111 132.524 314.613C132.987 315.616 133.343 316.691 133.308 317.766C133.308 318.841 132.951 319.845 132.559 320.669C131.704 322.389 130.636 323.679 129.816 324.933C128.961 326.151 128.569 327.406 128.391 328.516C128.249 329.627 128.356 330.595 128.641 331.311C128.926 332.028 129.353 332.458 129.674 332.673C129.816 332.816 129.959 332.852 130.03 332.924C130.101 332.996 130.173 332.996 130.137 333.031C130.137 333.031 130.066 333.031 129.994 332.996C129.888 332.96 129.745 332.924 129.567 332.816C129.211 332.637 128.712 332.171 128.356 331.455C127.999 330.702 127.821 329.663 127.964 328.481C128.071 327.298 128.498 325.936 129.353 324.646C130.137 323.356 131.17 321.995 131.918 320.382C132.274 319.594 132.559 318.698 132.524 317.766C132.524 316.835 132.239 315.903 131.776 314.971C131.313 314.04 130.743 313.072 130.208 312.069C129.638 311.066 129.104 310.026 128.534 308.951C127.394 306.801 126.289 304.472 125.149 302C122.905 297.055 120.732 291.536 118.844 285.445C118.381 283.94 117.918 282.363 117.454 280.786C117.027 279.21 116.599 277.561 116.279 275.877C115.958 274.193 115.709 272.473 115.602 270.681C115.495 268.89 115.566 267.098 115.887 265.271C116.208 263.443 116.813 261.616 117.775 259.967C117.989 259.537 118.274 259.143 118.559 258.749C118.844 258.355 119.129 257.961 119.485 257.602C120.162 256.886 121.053 256.205 122.121 255.918C123.19 255.631 124.401 255.811 125.328 256.312C126.289 256.814 127.038 257.495 127.75 258.247C128.427 259 128.997 259.788 129.567 260.576C129.852 260.971 130.137 261.365 130.422 261.759C130.707 262.153 130.956 262.547 131.241 262.977C133.414 266.238 135.338 269.75 137.013 273.441C137.832 275.268 138.616 277.167 139.293 279.102C140.005 281.037 140.611 283.008 141.145 284.979C141.715 286.95 142.321 288.849 143.211 290.605C144.102 292.325 145.313 293.866 146.809 294.905C147.558 295.406 148.377 295.801 149.268 296.016C150.123 296.231 151.084 296.231 152.153 296.41C152.688 296.481 153.222 296.661 153.756 296.911C154.255 297.162 154.718 297.449 155.146 297.807C155.965 298.488 156.642 299.312 157.212 300.136C158.352 301.749 159.349 303.469 160.169 305.225C160.953 306.981 161.665 308.772 162.235 310.6C163.375 314.219 164.123 317.802 164.836 321.314C165.548 324.79 166.225 328.194 167.151 331.419C167.614 332.996 168.149 334.536 169.039 335.755C169.503 336.364 170.001 336.901 170.607 337.26C171.213 337.654 171.889 337.941 172.566 338.048C172.923 338.12 173.243 338.12 173.564 338.084C173.884 338.048 174.205 337.976 174.526 337.833C175.131 337.582 175.666 337.116 176.271 336.615C176.592 336.364 176.913 336.113 177.269 335.898C177.661 335.719 178.017 335.504 178.409 335.396C178.801 335.253 179.228 335.217 179.62 335.146C180.048 335.146 180.439 335.11 180.831 335.181C181.223 335.217 181.615 335.325 182.007 335.396C182.185 335.468 182.363 335.54 182.541 335.576L182.826 335.683L183.076 335.791C183.788 336.077 184.394 336.507 184.999 336.937C186.175 337.833 187.137 338.944 187.885 340.126C189.31 342.563 189.951 345.143 190.379 347.58C190.771 350.016 190.878 352.31 190.984 354.46C191.091 356.61 191.127 358.581 191.234 360.408C191.341 362.236 191.554 363.884 191.839 365.353C192.374 368.291 193.371 370.441 194.226 371.731C195.224 373.201 195.829 373.81 195.758 373.846ZM155.929 419.784C155.823 419.856 155.395 419.282 154.576 418.315C153.756 417.347 152.581 415.914 150.942 414.337C149.303 412.761 147.237 411.041 144.672 409.571C142.107 408.102 139.043 406.92 135.659 406.454C132.31 405.988 129.033 406.311 126.254 407.242C123.475 408.138 121.266 409.715 119.699 411.256C118.131 412.832 117.241 414.445 116.778 415.627C116.564 416.201 116.386 416.666 116.279 416.989C116.172 417.311 116.101 417.491 116.029 417.455C115.994 417.455 115.958 417.276 115.994 416.917C115.994 416.559 116.101 416.057 116.243 415.412C116.599 414.122 117.383 412.331 118.951 410.503C120.518 408.711 122.869 406.956 125.826 405.881C128.783 404.806 132.31 404.411 135.908 404.913C139.506 405.415 142.748 406.705 145.42 408.317C148.092 409.93 150.194 411.829 151.761 413.549C153.329 415.269 154.433 416.81 155.11 417.921C155.716 419.067 156.001 419.748 155.929 419.784Z" fill="#D7D7D7" stroke="#D7D7D7" stroke-width="0.559275" stroke-miterlimit="10"/>
<path d="M173.207 416.202C173.029 416.345 171.782 415.127 169.609 413.371C168.505 412.475 167.187 411.508 165.619 410.576C164.052 409.644 162.235 408.82 160.24 408.283C158.209 407.745 156.25 407.53 154.433 407.602C152.616 407.638 151.013 407.96 149.73 408.354C147.094 409.143 145.705 410.289 145.562 410.074C145.491 410.003 145.776 409.644 146.417 409.107C146.738 408.856 147.13 408.569 147.628 408.247C148.127 407.96 148.697 407.638 149.41 407.351C150.763 406.778 152.473 406.312 154.397 406.204C156.321 406.061 158.494 406.24 160.667 406.814C162.84 407.387 164.8 408.319 166.403 409.394C168.006 410.433 169.324 411.579 170.357 412.583C172.352 414.589 173.35 416.059 173.207 416.202ZM440.787 329.055C440.751 329.055 440.858 328.769 441.036 328.303C441.214 327.837 441.499 327.084 441.891 326.117C442.639 324.182 443.815 321.351 445.275 317.732C445.632 316.836 446.059 315.869 446.451 314.865C446.807 313.862 447.092 312.751 446.95 311.676C446.878 311.139 446.629 310.637 446.237 310.279C445.845 309.92 445.311 309.705 444.705 309.49C444.1 309.275 443.387 309.06 442.817 308.523C442.532 308.236 442.283 307.914 442.14 307.519C441.998 307.125 441.962 306.731 441.962 306.337C441.998 305.549 442.247 304.832 442.568 304.115C442.746 303.757 442.924 303.434 443.138 303.112C443.352 302.789 443.565 302.503 443.779 302.18C444.634 300.962 445.596 299.744 446.593 298.489C448.553 296.017 450.726 293.473 452.436 290.463C452.65 290.104 452.863 289.71 453.042 289.316C453.22 288.922 453.433 288.528 453.612 288.134C453.968 287.345 454.288 286.521 454.502 285.661C454.93 283.941 455.108 282.114 454.93 280.286C454.752 278.459 454.217 276.595 453.22 275.019C452.721 274.23 452.115 273.514 451.367 272.94C451.011 272.654 450.619 272.403 450.192 272.188C449.978 272.08 449.764 271.973 449.55 271.901C449.337 271.794 449.087 271.722 448.838 271.614C448.588 271.507 448.268 271.364 447.983 271.113C447.698 270.862 447.448 270.468 447.413 270.109C447.342 269.751 447.377 269.393 447.413 269.106C447.448 268.819 447.52 268.569 447.555 268.318L447.698 267.529L447.876 266.741C447.983 266.204 448.161 265.702 448.303 265.164C448.909 263.086 449.657 261.008 450.512 258.965C452.187 254.88 454.288 250.831 456.105 246.603C457.032 244.489 457.851 242.303 458.528 240.081C458.848 238.97 459.169 237.824 459.347 236.677C459.561 235.53 459.703 234.348 459.81 233.165C459.917 231.983 459.846 230.8 459.775 229.618C459.703 229.044 459.668 228.435 459.525 227.862C459.418 227.289 459.24 226.787 458.991 226.321C458.742 225.855 458.421 225.533 458.029 225.318C457.637 225.103 457.174 225.067 456.64 225.139C456.141 225.21 455.607 225.389 455.072 225.64C454.538 225.891 454.039 226.214 453.505 226.536C452.97 226.859 452.472 227.217 451.937 227.539C451.438 227.898 450.94 228.256 450.441 228.65C450.192 228.829 449.942 229.009 449.693 229.224L448.98 229.833C448.517 230.227 448.018 230.621 447.52 231.051C446.593 231.911 445.667 232.771 444.812 233.703C443.922 234.599 443.102 235.602 442.283 236.569C441.891 237.071 441.499 237.609 441.107 238.11C440.929 238.361 440.715 238.612 440.537 238.899L440.003 239.723C439.647 240.26 439.29 240.798 438.934 241.335C438.613 241.909 438.293 242.446 437.972 243.019C437.794 243.306 437.652 243.593 437.509 243.879L437.082 244.739L436.654 245.599C436.512 245.886 436.405 246.209 436.262 246.495C436.013 247.104 435.728 247.678 435.478 248.287C435.265 248.896 435.015 249.505 434.802 250.15C434.552 250.759 434.41 251.404 434.196 252.014C434.018 252.659 433.804 253.268 433.662 253.913C433.519 254.558 433.377 255.203 433.198 255.812C433.092 256.457 432.985 257.102 432.878 257.747C432.735 258.392 432.7 259.037 432.628 259.682C432.557 260.327 432.486 260.972 432.45 261.617C432.343 262.907 432.272 264.269 432.023 265.63C431.88 266.311 431.702 266.992 431.417 267.637C431.132 268.282 430.776 268.927 430.277 269.5C429.28 270.611 427.89 271.292 426.394 271.435C425.646 271.471 424.827 271.364 424.15 270.969C423.972 270.862 423.829 270.754 423.651 270.647C423.508 270.504 423.366 270.36 423.223 270.217C422.974 269.93 422.796 269.644 422.618 269.429C422.44 269.214 422.297 269.034 422.155 268.999C422.012 268.927 421.905 268.927 421.727 268.927C421.371 268.999 420.908 269.321 420.48 269.715C418.663 271.399 417.06 273.227 415.707 275.234C414.388 277.276 413.248 279.39 412.322 281.612C410.541 286.055 409.472 290.678 408.938 295.229C408.653 297.522 408.51 299.779 408.439 302.037C408.368 304.294 408.403 306.48 408.439 308.702C408.439 309.813 408.439 310.924 408.297 312.07C408.225 312.644 408.118 313.181 408.012 313.754C407.869 314.292 407.691 314.865 407.477 315.367C407.228 315.904 406.978 316.406 406.622 316.872C406.266 317.374 405.838 317.768 405.411 318.126C404.485 318.807 403.416 319.273 402.276 319.452C401.706 319.524 401.136 319.524 400.566 319.452C400.423 319.416 400.281 319.38 400.138 319.344C399.996 319.309 399.853 319.273 399.711 319.201L399.283 319.022L398.892 318.807C398.749 318.735 398.642 318.628 398.535 318.556C398.428 318.449 398.322 318.377 398.215 318.269C398.037 318.054 397.823 317.804 397.68 317.589C397.395 317.123 397.182 316.657 396.932 316.334C396.683 316.012 396.433 315.833 396.113 315.761C395.828 315.689 395.436 315.797 395.08 316.012C394.723 316.191 394.367 316.478 394.082 316.8C393.94 316.944 393.797 317.123 393.619 317.302C393.477 317.481 393.298 317.66 393.156 317.839C390.84 320.742 389.522 324.218 388.703 327.55C388.489 328.374 388.311 329.234 388.204 330.059C388.062 330.883 387.99 331.743 387.848 332.531C387.812 332.746 387.777 332.925 387.777 333.14C387.777 333.355 387.741 333.534 387.741 333.749C387.705 334.144 387.67 334.574 387.634 334.968C387.563 335.756 387.563 336.58 387.527 337.333C387.492 340.45 387.741 343.424 388.168 346.148C388.632 348.871 389.273 351.379 389.985 353.637C390.163 354.21 390.377 354.748 390.555 355.285C390.769 355.823 390.912 356.36 391.125 356.826C391.553 357.829 391.909 358.797 392.372 359.657C392.586 360.087 392.8 360.517 392.978 360.947C393.156 361.377 393.405 361.735 393.619 362.129C394.047 362.882 394.403 363.599 394.83 364.244C395.222 364.889 395.578 365.498 395.935 365.999C396.291 366.537 396.612 367.003 396.897 367.433C397.039 367.648 397.182 367.863 397.324 368.042C397.467 368.221 397.573 368.4 397.716 368.544C397.965 368.866 398.143 369.117 398.322 369.332C398.642 369.762 398.785 369.977 398.749 370.013C398.713 370.013 398.535 369.834 398.179 369.439C398.001 369.224 397.787 368.974 397.538 368.687C397.395 368.544 397.288 368.364 397.11 368.185C396.968 368.006 396.825 367.827 396.683 367.612C396.362 367.182 396.006 366.716 395.65 366.214C395.258 365.713 394.902 365.104 394.474 364.459C394.047 363.849 393.655 363.133 393.192 362.38C392.978 361.986 392.728 361.628 392.515 361.198C392.301 360.768 392.087 360.338 391.873 359.908C391.41 359.048 391.018 358.08 390.555 357.077C390.306 356.575 390.128 356.038 389.914 355.5C389.7 354.963 389.487 354.425 389.308 353.852C388.525 351.559 387.848 349.05 387.349 346.255C386.387 340.737 386.138 334.179 387.67 327.228C388.062 325.508 388.596 323.716 389.344 321.996C390.092 320.276 391.018 318.556 392.23 317.015C392.372 316.8 392.55 316.621 392.693 316.442C392.835 316.263 393.013 316.048 393.192 315.869C393.548 315.51 393.975 315.152 394.474 314.865C394.973 314.614 395.578 314.364 396.255 314.471C396.576 314.507 396.897 314.65 397.182 314.829C397.467 315.009 397.68 315.259 397.858 315.51C398.215 315.976 398.393 316.442 398.642 316.836C398.749 317.015 398.892 317.159 399.034 317.338C399.105 317.409 399.177 317.481 399.283 317.553C399.355 317.624 399.426 317.696 399.533 317.732L399.782 317.911L400.067 318.019C400.174 318.054 400.281 318.09 400.388 318.126C400.495 318.162 400.602 318.198 400.708 318.198C401.136 318.269 401.599 318.269 402.027 318.198C402.917 318.054 403.808 317.66 404.556 317.123C404.912 316.836 405.268 316.514 405.518 316.119C405.803 315.761 406.017 315.295 406.23 314.865C407.014 313.038 407.121 310.888 407.085 308.738C407.014 306.552 406.978 304.294 407.05 302.001C407.121 299.708 407.263 297.414 407.548 295.085C408.083 290.427 409.116 285.661 410.968 281.074C411.895 278.781 413.07 276.559 414.46 274.445C415.885 272.367 417.559 270.396 419.483 268.64C419.732 268.425 420.017 268.174 420.338 267.995C420.658 267.78 421.015 267.601 421.442 267.529C421.656 267.494 421.905 267.458 422.155 267.494C422.404 267.529 422.653 267.601 422.867 267.709C423.295 267.959 423.58 268.282 423.793 268.569C424.007 268.855 424.185 269.106 424.328 269.285C424.399 269.357 424.506 269.464 424.577 269.536C424.684 269.608 424.755 269.679 424.862 269.715C425.29 269.93 425.788 270.038 426.287 270.002C427.32 269.93 428.425 269.393 429.137 268.569C429.493 268.174 429.778 267.673 430.028 267.135C430.242 266.598 430.42 266.024 430.562 265.415C430.812 264.197 430.883 262.943 430.954 261.617C430.99 260.972 431.097 260.291 431.168 259.61C431.239 258.929 431.31 258.284 431.417 257.604C431.524 256.923 431.631 256.278 431.773 255.597C431.916 254.952 432.094 254.271 432.237 253.626C432.379 252.945 432.593 252.3 432.771 251.655C432.985 251.01 433.127 250.329 433.377 249.72C436.939 239.436 444.028 230.693 452.792 225.354C453.327 224.995 453.897 224.673 454.502 224.386C455.108 224.099 455.749 223.849 456.497 223.741C457.21 223.634 458.029 223.705 458.742 224.064C459.454 224.422 459.988 225.031 460.345 225.676C461.022 226.966 461.128 228.292 461.271 229.546C461.378 230.8 461.413 232.09 461.307 233.309C461.235 234.563 461.057 235.781 460.808 236.999C460.594 238.218 460.273 239.4 459.917 240.547C459.205 242.876 458.35 245.098 457.423 247.212C455.571 251.512 453.469 255.525 451.795 259.539C450.94 261.545 450.192 263.552 449.622 265.594C449.479 266.096 449.337 266.598 449.194 267.099L449.016 267.852L448.873 268.604C448.767 269.106 448.66 269.644 448.695 269.894C448.731 270.038 448.767 270.109 448.873 270.217C448.98 270.324 449.158 270.396 449.372 270.504C449.586 270.575 449.835 270.683 450.085 270.79C450.334 270.898 450.583 271.005 450.833 271.149C451.332 271.399 451.795 271.722 452.187 272.044C453.042 272.725 453.754 273.549 454.288 274.445C455.393 276.237 455.963 278.279 456.141 280.25C456.319 282.221 456.141 284.192 455.642 286.055C455.393 286.987 455.037 287.883 454.68 288.707C454.502 289.137 454.288 289.531 454.075 289.925C453.861 290.319 453.647 290.714 453.433 291.108C451.617 294.189 449.408 296.734 447.413 299.17C446.415 300.389 445.453 301.571 444.598 302.754C444.385 303.04 444.171 303.363 443.957 303.649C443.779 303.936 443.601 304.259 443.423 304.545C443.138 305.154 442.888 305.799 442.853 306.409C442.817 307.018 442.995 307.555 443.423 307.949C443.815 308.344 444.42 308.559 445.026 308.774C445.632 308.989 446.308 309.239 446.807 309.741C447.342 310.243 447.627 310.924 447.698 311.569C447.769 312.214 447.733 312.859 447.591 313.432C447.484 314.005 447.306 314.579 447.092 315.08C446.665 316.119 446.237 317.051 445.845 317.947C444.278 321.53 443.031 324.325 442.176 326.224C441.748 327.156 441.428 327.873 441.178 328.374C440.929 328.876 440.822 329.055 440.787 329.055Z" fill="#D7D7D7" stroke="#D7D7D7" stroke-width="0.559275" stroke-miterlimit="10"/>
<path d="M481.684 375.247C481.684 375.247 481.649 375.175 481.578 375.068C481.542 374.996 481.506 374.924 481.471 374.817C481.435 374.709 481.399 374.602 481.364 374.459C481.221 373.885 481.079 373.025 481.257 371.879C481.399 370.732 481.863 369.37 482.753 367.973C483.216 367.256 483.751 366.575 484.463 365.895C485.14 365.214 485.959 364.605 486.85 363.995C488.631 362.777 490.804 361.774 493.12 360.663C494.26 360.089 495.471 359.48 496.611 358.728C497.751 357.975 498.891 357.079 499.889 356.004C500.851 354.929 501.67 353.604 502.062 352.134C502.418 350.665 502.383 349.017 501.848 347.44C501.349 345.9 500.459 344.395 499.176 343.248C498.891 342.925 498.499 342.71 498.179 342.46C498.001 342.352 497.823 342.245 497.609 342.137L497.324 341.958L497.039 341.815C496.825 341.743 496.647 341.635 496.433 341.564C496.219 341.492 496.006 341.456 495.792 341.385C495.364 341.277 494.901 341.205 494.438 341.098C493.512 340.883 492.514 340.704 491.553 340.166C491.089 339.88 490.591 339.485 490.341 338.912C490.199 338.625 490.128 338.339 490.092 338.016C490.056 337.694 490.092 337.407 490.128 337.12C490.234 336.547 490.448 336.045 490.626 335.58C490.733 335.329 490.84 335.114 490.947 334.863C491.054 334.612 491.196 334.397 491.303 334.146C491.802 333.215 492.408 332.355 493.049 331.495C494.367 329.81 495.934 328.305 497.573 326.908C499.212 325.475 500.958 324.149 502.632 322.715C504.306 321.282 505.945 319.741 507.263 317.95C508.581 316.158 509.614 314.08 510.042 311.858C510.256 310.747 510.291 309.6 510.149 308.49C509.971 307.379 509.579 306.34 508.973 305.372C508.368 304.44 507.513 303.616 506.586 302.971C505.624 302.362 504.52 302.004 503.416 301.968C502.846 301.968 502.311 302.04 501.777 302.219C501.207 302.398 500.637 302.613 500.031 302.828C499.426 303.043 498.784 303.294 498.108 303.437C497.431 303.58 496.611 303.616 495.828 303.294L495.543 303.15C495.436 303.115 495.364 303.043 495.293 302.971C495.115 302.864 494.973 302.72 494.794 302.577C494.509 302.29 494.26 301.932 494.082 301.538C493.761 300.785 493.726 299.997 493.797 299.28C493.868 298.564 494.046 297.883 494.224 297.202C494.438 296.521 494.688 295.948 494.937 295.303C496.861 290.358 498.998 285.413 500.958 280.325C502.917 275.236 504.627 269.933 505.553 264.415C505.66 263.734 505.803 263.053 505.874 262.336L506.016 261.297C506.052 260.939 506.088 260.58 506.123 260.258C506.159 259.613 506.123 259.004 505.874 258.574C505.767 258.359 505.589 258.18 505.411 258C505.197 257.857 504.983 257.714 504.698 257.642C504.164 257.463 503.523 257.427 502.881 257.499C502.24 257.57 501.599 257.714 500.993 258C499.711 258.502 498.535 259.219 497.431 260.079C495.222 261.763 493.405 263.949 491.98 266.35C490.519 268.75 489.451 271.33 488.56 273.982C486.814 279.285 485.781 284.84 483.893 290.071C483.43 291.361 482.931 292.687 482.183 293.941C481.435 295.16 480.438 296.342 479.048 297.059C478.371 297.381 477.623 297.596 476.839 297.632C476.091 297.668 475.272 297.596 474.559 297.238C474.203 297.095 473.847 296.844 473.526 296.593C473.241 296.306 472.956 296.02 472.743 295.697C472.315 295.052 472.101 294.371 471.888 293.726C471.674 293.081 471.496 292.472 471.246 291.935C470.997 291.397 470.676 291.003 470.284 290.752C469.857 290.501 469.429 290.394 468.931 290.501C468.432 290.573 467.969 290.86 467.506 291.182C466.615 291.863 465.867 292.866 465.368 293.905C464.869 295.016 464.442 296.199 464.121 297.381C463.444 299.746 463.159 302.183 462.981 304.62C462.839 307.056 462.839 309.457 462.839 311.858C462.839 316.624 462.839 321.354 461.877 325.833C461.628 326.944 461.307 328.055 460.951 329.13C460.559 330.169 460.203 331.28 459.348 332.247C458.92 332.713 458.35 333.107 457.709 333.25C457.068 333.43 456.391 333.322 455.785 333.107C454.609 332.641 453.79 331.817 453.149 330.921C452.828 330.455 452.543 329.954 452.329 329.488C452.116 329.022 451.902 328.52 451.724 328.09C451.332 327.159 450.904 326.299 450.299 325.654C449.729 324.973 448.945 324.579 448.126 324.471C447.306 324.364 446.451 324.579 445.668 324.973C444.884 325.367 444.171 325.94 443.566 326.55C442.924 327.195 442.39 327.875 441.927 328.592C441.428 329.309 441.072 330.133 440.68 330.885C440.573 331.065 440.502 331.28 440.395 331.459C440.288 331.638 440.217 331.853 440.146 332.032C439.968 332.426 439.825 332.82 439.683 333.215C438.436 336.368 437.723 339.521 437.367 342.495C436.975 345.47 437.082 348.265 437.331 350.845C437.545 353.425 438.115 355.718 438.649 357.76C438.828 358.262 438.97 358.764 439.113 359.229C439.184 359.48 439.255 359.695 439.326 359.946C439.398 360.161 439.469 360.412 439.576 360.627C439.932 361.487 440.253 362.311 440.573 363.064C440.929 363.78 441.25 364.461 441.571 365.106C441.891 365.715 442.212 366.253 442.497 366.719C442.639 366.97 442.782 367.185 442.889 367.4C442.996 367.615 443.138 367.794 443.281 367.973C443.53 368.331 443.708 368.618 443.886 368.869C444.207 369.335 444.349 369.585 444.349 369.621C444.349 369.657 444.136 369.406 443.779 368.976C443.601 368.761 443.388 368.475 443.103 368.116C442.96 367.937 442.818 367.758 442.675 367.543C442.533 367.328 442.39 367.113 442.248 366.862C441.963 366.396 441.606 365.859 441.25 365.25C440.929 364.64 440.573 363.959 440.181 363.243C439.825 362.49 439.469 361.666 439.077 360.806C438.97 360.591 438.899 360.376 438.828 360.125C438.756 359.91 438.649 359.659 438.578 359.409C438.4 358.943 438.222 358.441 438.044 357.94C437.474 355.861 436.833 353.568 436.583 350.952C436.298 348.336 436.156 345.505 436.512 342.424C436.833 339.378 437.509 336.153 438.756 332.892C438.899 332.498 439.077 332.068 439.219 331.674C439.291 331.459 439.398 331.28 439.504 331.065C439.611 330.85 439.683 330.67 439.789 330.455C440.181 329.667 440.538 328.807 441.072 328.019C441.571 327.23 442.176 326.478 442.853 325.797C443.53 325.116 444.314 324.471 445.204 324.005C446.095 323.54 447.164 323.217 448.304 323.36C449.408 323.468 450.441 324.077 451.189 324.901C451.938 325.725 452.401 326.693 452.828 327.625C453.042 328.09 453.256 328.556 453.469 329.022C453.683 329.488 453.897 329.882 454.182 330.276C454.752 331.029 455.464 331.745 456.284 332.032C456.676 332.175 457.103 332.211 457.495 332.104C457.887 331.996 458.243 331.781 458.528 331.459C459.134 330.778 459.49 329.775 459.846 328.771C460.203 327.768 460.488 326.693 460.701 325.618C461.628 321.318 461.592 316.695 461.556 311.894C461.556 309.493 461.521 307.056 461.699 304.584C461.877 302.111 462.162 299.567 462.839 297.059C463.195 295.805 463.623 294.586 464.157 293.368C464.727 292.114 465.582 290.967 466.686 290.071C467.256 289.641 467.933 289.247 468.717 289.104C468.895 289.068 469.109 289.068 469.323 289.032C469.536 289.032 469.75 289.068 469.928 289.104C470.142 289.14 470.32 289.211 470.534 289.283C470.712 289.39 470.89 289.462 471.068 289.57C471.781 290 472.244 290.716 472.564 291.361C472.885 292.042 473.063 292.687 473.277 293.296C473.669 294.515 474.168 295.554 475.165 295.948C476.127 296.378 477.409 296.27 478.407 295.769C478.906 295.518 479.369 295.16 479.796 294.73C480.224 294.3 480.58 293.798 480.901 293.225C481.542 292.114 482.041 290.895 482.504 289.605C484.356 284.517 485.354 278.999 487.135 273.552C488.026 270.829 489.166 268.105 490.662 265.597C492.158 263.089 494.082 260.724 496.469 258.896C497.68 257.965 498.963 257.212 500.388 256.639C501.1 256.316 501.884 256.137 502.668 256.03C503.451 255.958 504.271 255.958 505.09 256.209C505.518 256.352 505.909 256.531 506.266 256.818C506.622 257.105 506.943 257.463 507.156 257.893C507.37 258.287 507.477 258.753 507.548 259.183C507.584 259.613 507.584 260.007 507.584 260.401C507.548 260.795 507.513 261.154 507.477 261.512L507.334 262.587C507.263 263.304 507.121 264.02 507.014 264.737C506.052 270.399 504.271 275.774 502.311 280.934C500.352 286.094 498.179 291.003 496.255 295.912C496.006 296.521 495.756 297.13 495.578 297.704C495.4 298.277 495.258 298.886 495.186 299.46C495.151 300.033 495.186 300.606 495.364 301.036C495.543 301.466 495.899 301.789 496.326 301.968C496.754 302.147 497.253 302.147 497.823 302.04C498.393 301.932 498.963 301.717 499.533 301.502C500.103 301.287 500.708 301.036 501.385 300.857C501.706 300.75 502.062 300.714 502.418 300.642C502.596 300.606 502.774 300.606 502.953 300.606C503.131 300.606 503.309 300.57 503.487 300.606C504.876 300.642 506.23 301.108 507.37 301.86C508.51 302.613 509.436 303.545 510.184 304.655C510.897 305.766 511.36 307.056 511.538 308.346C511.716 309.636 511.645 310.926 511.431 312.145C510.933 314.617 509.793 316.839 508.368 318.774C506.907 320.673 505.233 322.285 503.487 323.719C501.777 325.188 500.031 326.514 498.393 327.875C496.754 329.237 495.258 330.706 493.975 332.283C493.334 333.071 492.764 333.895 492.301 334.755C492.194 334.97 492.051 335.185 491.944 335.4C491.838 335.615 491.731 335.83 491.624 336.045C491.41 336.475 491.268 336.941 491.161 337.335C491.125 337.55 491.125 337.729 491.125 337.909C491.161 338.088 491.196 338.267 491.268 338.446C491.41 338.769 491.695 339.055 492.051 339.235C492.764 339.665 493.69 339.88 494.616 340.059C495.079 340.166 495.543 340.238 496.006 340.381C496.255 340.453 496.469 340.525 496.718 340.596C496.968 340.668 497.181 340.775 497.395 340.883L497.716 341.026L498.036 341.205C498.25 341.349 498.464 341.456 498.678 341.6C499.069 341.886 499.461 342.173 499.782 342.495C501.207 343.785 502.133 345.434 502.668 347.154C503.202 348.874 503.238 350.701 502.846 352.35C502.418 354.034 501.492 355.431 500.423 356.578C499.354 357.725 498.143 358.62 496.968 359.409C495.756 360.161 494.545 360.77 493.369 361.344C491.018 362.455 488.881 363.386 487.099 364.533C486.209 365.106 485.425 365.68 484.748 366.325C484.071 366.97 483.501 367.615 483.074 368.295C482.148 369.621 481.684 370.947 481.506 372.022C481.293 373.097 481.364 373.957 481.471 374.53C481.506 374.674 481.506 374.781 481.542 374.889C481.578 374.996 481.578 375.068 481.613 375.14C481.684 375.175 481.684 375.247 481.684 375.247ZM434.802 352.063C434.944 352.242 433.591 353.317 431.56 355.145C430.527 356.076 429.387 357.187 428.14 358.513C426.929 359.839 425.646 361.344 424.435 363.028C423.224 364.712 422.155 366.396 421.264 367.973C420.374 369.549 419.661 371.019 419.091 372.273C418.806 372.918 418.557 373.455 418.343 373.957C418.129 374.459 417.987 374.853 417.951 375.211C417.844 375.892 418.058 376.286 417.987 376.322C417.951 376.358 417.844 376.286 417.702 376.107C417.559 375.928 417.417 375.605 417.381 375.175C417.346 374.745 417.417 374.208 417.559 373.67C417.702 373.133 417.916 372.524 418.129 371.843C418.593 370.517 419.234 368.94 420.089 367.292C420.944 365.644 422.013 363.852 423.259 362.132C424.506 360.376 425.86 358.835 427.214 357.545C428.532 356.22 429.814 355.145 430.954 354.32C433.128 352.672 434.695 351.919 434.802 352.063ZM407.869 367.185C407.763 367.185 407.834 365.572 408.083 362.705C408.154 361.989 408.226 361.164 408.297 360.304C408.404 359.444 408.546 358.477 408.689 357.474C408.974 355.431 409.259 353.102 409.793 350.558C410.043 349.268 410.292 347.942 410.541 346.58C410.826 345.183 411.183 343.785 411.539 342.28C412.18 339.306 413.106 336.189 413.997 332.856C415.921 326.299 418.308 319.132 421.122 311.75C426.786 296.987 432.664 284.015 436.833 274.555C438.934 269.861 440.644 266.027 441.82 263.411C443.031 260.795 443.708 259.362 443.815 259.398C443.922 259.434 443.388 260.939 442.354 263.662C441.856 265.024 441.214 266.672 440.431 268.571C439.647 270.47 438.792 272.656 437.794 275.021C433.876 284.589 428.14 297.632 422.511 312.324C419.733 319.67 417.31 326.765 415.315 333.286C414.389 336.547 413.427 339.665 412.75 342.603C412.394 344.072 412.002 345.47 411.681 346.867C411.396 348.229 411.111 349.554 410.826 350.809C410.221 353.317 409.9 355.61 409.508 357.617C409.33 358.62 409.152 359.552 409.009 360.412C408.903 361.272 408.76 362.06 408.689 362.777C408.226 365.608 407.941 367.185 407.869 367.185Z" fill="#D7D7D7" stroke="#D7D7D7" stroke-width="0.559275" stroke-miterlimit="10"/>
<path d="M465.332 373.24C465.225 373.24 465.225 372.058 465.332 369.908C465.368 369.37 465.404 368.761 465.439 368.116C465.475 367.471 465.582 366.754 465.653 366.002C465.831 364.497 465.974 362.741 466.259 360.842C466.401 359.874 466.544 358.907 466.722 357.868C466.9 356.828 467.114 355.753 467.327 354.643C467.719 352.421 468.289 350.056 468.859 347.583C470.07 342.638 471.602 337.263 473.491 331.709C475.379 326.155 477.374 320.959 479.262 316.229C480.224 313.9 481.15 311.643 482.04 309.6C482.931 307.522 483.786 305.623 484.57 303.867C486.137 300.355 487.455 297.56 488.382 295.625C489.308 293.69 489.878 292.651 489.985 292.687C490.092 292.723 489.7 293.869 488.916 295.84C488.132 297.847 486.957 300.713 485.532 304.261C484.819 306.017 484.035 307.988 483.18 310.066C482.326 312.144 481.47 314.402 480.544 316.731C478.727 321.461 476.768 326.657 474.915 332.175C473.063 337.693 471.495 343.033 470.213 347.906C469.607 350.343 469.002 352.672 468.574 354.893C468.361 356.004 468.111 357.043 467.897 358.083C467.719 359.122 467.541 360.089 467.363 361.021C466.971 362.884 466.757 364.604 466.544 366.109C466.437 366.862 466.33 367.543 466.223 368.188C466.152 368.833 466.081 369.406 466.009 369.943C465.617 372.058 465.404 373.24 465.332 373.24ZM132.167 404.845C132.132 404.845 131.882 404.343 131.491 403.304C131.384 403.053 131.277 402.767 131.17 402.444C131.027 402.122 130.885 401.799 130.742 401.441C130.422 400.688 130.101 399.828 129.638 398.933C129.424 398.467 129.175 397.965 128.926 397.463C128.641 396.962 128.391 396.424 128.071 395.851C127.928 395.564 127.786 395.278 127.607 394.991C127.429 394.704 127.287 394.418 127.109 394.131C126.752 393.558 126.432 392.913 126.04 392.303C124.508 389.795 122.62 387 120.376 384.062C118.167 381.088 115.602 377.898 112.859 374.494C111.469 372.774 110.08 371.018 108.655 369.155C107.23 367.292 105.841 365.321 104.344 363.35C98.573 355.323 92.8374 346.043 87.4224 336.009C81.9718 325.976 77.198 316.229 72.923 307.343C68.648 298.456 64.8005 290.429 61.4874 283.764C60.668 282.08 59.8487 280.503 59.1005 278.998C58.3524 277.493 57.6399 276.06 56.963 274.77C55.5737 272.154 54.4337 269.861 53.4718 268.033C52.4743 266.206 51.7262 264.773 51.2274 263.769C50.7287 262.802 50.4793 262.264 50.5505 262.228C50.5862 262.193 50.9068 262.694 51.5124 263.626C52.0824 264.558 52.9374 265.955 54.0062 267.747C55.0749 269.538 56.2862 271.796 57.7468 274.376C58.4593 275.666 59.2074 277.063 59.9912 278.568C60.7749 280.073 61.6299 281.614 62.4849 283.298C65.9405 289.928 69.8593 297.918 74.2055 306.733C78.5518 315.584 83.3612 325.295 88.7762 335.293C94.1912 345.29 99.8555 354.499 105.52 362.526C106.981 364.497 108.334 366.468 109.759 368.331C111.149 370.194 112.574 371.986 113.892 373.706C116.599 377.146 119.129 380.371 121.302 383.417C123.475 386.463 125.363 389.293 126.824 391.873C127.216 392.518 127.536 393.163 127.857 393.773C128.035 394.095 128.177 394.382 128.356 394.668C128.498 394.955 128.641 395.278 128.783 395.564C129.068 396.138 129.317 396.675 129.567 397.213C129.781 397.75 129.994 398.252 130.208 398.753C130.636 399.721 130.921 400.581 131.206 401.369C131.348 401.763 131.455 402.086 131.562 402.408C131.669 402.731 131.74 403.018 131.811 403.304C132.061 404.236 132.203 404.809 132.167 404.845ZM174.169 392.877C174.134 392.877 174.062 392.733 174.062 392.447C174.062 392.303 174.027 392.124 174.027 391.945C174.027 391.73 173.991 391.515 173.956 391.264C173.884 390.261 173.671 388.756 173.101 387.072C172.78 386.212 172.388 385.316 171.854 384.42C171.319 383.524 170.607 382.664 169.752 381.876C168.897 381.088 167.864 380.478 166.688 380.048C165.512 379.618 164.194 379.368 162.841 379.224C161.451 379.081 160.097 379.045 158.744 378.938C157.39 378.83 156.072 378.615 154.825 378.293C153.578 377.934 152.438 377.433 151.476 376.716C151.013 376.358 150.55 375.999 150.194 375.533C149.837 375.103 149.552 374.673 149.303 374.208C148.377 372.38 148.484 370.624 148.911 369.585C149.125 369.048 149.374 368.725 149.588 368.51C149.802 368.295 149.909 368.223 149.98 368.259C150.087 368.331 149.695 368.797 149.481 369.764C149.374 370.23 149.339 370.839 149.446 371.52C149.552 372.201 149.802 372.953 150.265 373.706C150.479 374.064 150.764 374.423 151.084 374.781C151.405 375.139 151.761 375.426 152.189 375.677C153.044 376.25 154.041 376.644 155.181 376.931C156.321 377.218 157.568 377.361 158.851 377.468C160.169 377.576 161.558 377.612 163.019 377.755C164.479 377.898 165.904 378.149 167.258 378.687C168.576 379.224 169.787 379.977 170.714 380.873C171.676 381.768 172.424 382.772 172.958 383.811C173.492 384.814 173.884 385.818 174.134 386.749C174.632 388.648 174.668 390.225 174.561 391.264C174.526 391.515 174.526 391.766 174.49 391.981C174.454 392.196 174.419 392.339 174.383 392.483C174.276 392.769 174.241 392.877 174.169 392.877Z" fill="#D7D7D7" stroke="#D7D7D7" stroke-width="0.559275" stroke-miterlimit="10"/>
<path d="M482.468 186.19C482.468 186.656 474.595 187.05 461.699 187.767C455.251 188.125 447.556 188.591 438.97 189.2C434.659 189.523 430.171 189.845 425.468 190.239C423.117 190.454 420.73 190.633 418.308 190.848C414.781 191.171 411.218 191.493 407.62 191.852C409.437 188.591 411.289 185.33 413.142 181.998C423.972 162.683 433.947 145.304 441.321 132.834C448.696 120.364 453.469 112.732 453.897 112.983C454.324 113.233 450.299 121.26 443.494 134.053C436.69 146.845 427.036 164.439 416.206 183.753C415.422 185.115 414.674 186.477 413.926 187.803C415.315 187.695 416.704 187.588 418.058 187.48C420.516 187.265 422.903 187.086 425.254 186.943C429.993 186.62 434.517 186.333 438.828 186.154C447.449 185.724 455.179 185.545 461.663 185.509C474.595 185.33 482.468 185.76 482.468 186.19Z" fill="#D7D7D7" stroke="#D7D7D7" stroke-width="1.29063" stroke-miterlimit="10"/>
<path d="M485.445 192.384C485.705 227.987 486.696 256.843 487.66 256.836C488.625 256.829 489.196 227.961 488.936 192.359C488.677 156.756 487.685 127.9 486.721 127.907C485.757 127.915 485.186 156.782 485.445 192.384Z" fill="#D7D7D7" stroke="#D7D7D7" stroke-width="1.29063" stroke-miterlimit="10"/>
<path d="M142.249 195.646C142.214 196.148 133.521 196.076 119.342 196.076C112.253 196.076 103.81 196.112 94.3693 196.256C89.6668 196.327 84.715 196.435 79.5493 196.578C76.9843 196.65 74.3481 196.757 71.7118 196.829C67.8643 196.972 63.9456 197.116 59.9912 197.259C61.63 195.037 63.2687 192.816 64.9075 190.558C65.8337 189.304 66.76 188.05 67.6862 186.796C68.5412 185.649 69.3962 184.502 70.2512 183.356C71.9612 181.098 73.6356 178.876 75.2743 176.691C78.5875 172.319 81.8293 168.162 84.9287 164.185C91.1275 156.266 96.8631 149.242 101.744 143.401C106.624 137.561 110.65 132.902 113.536 129.749C116.386 126.596 118.06 124.947 118.274 125.091C118.666 125.413 112.93 132.902 103.703 144.942C99.0718 150.962 93.55 158.165 87.4937 166.156C84.4656 170.169 81.295 174.397 78.0175 178.733C76.3787 180.919 74.74 183.141 73.03 185.434C71.4268 187.62 69.7881 189.806 68.1493 192.063C67.7931 192.529 67.4368 193.031 67.1162 193.496C68.6481 193.461 70.1443 193.425 71.6406 193.353C74.3125 193.281 76.9487 193.21 79.5137 193.174C84.6793 193.066 89.6312 193.066 94.3693 193.066C103.81 193.102 112.289 193.317 119.414 193.64C126.503 193.962 132.239 194.321 136.157 194.679C140.112 195.073 142.249 195.431 142.249 195.646Z" fill="#D7D7D7" stroke="#D7D7D7" stroke-width="1.29063" stroke-miterlimit="10"/>
<path d="M143.924 283.584C143.674 283.619 143.14 281.613 142.321 277.922C142.143 276.99 141.929 275.987 141.679 274.84C141.466 273.729 141.252 272.475 141.038 271.185C140.611 268.534 140.076 265.559 139.649 262.227C139.435 260.543 139.186 258.823 138.972 256.995C138.758 255.168 138.58 253.269 138.366 251.298C137.939 247.356 137.618 243.164 137.262 238.72C136.656 229.834 136.3 220.051 136.193 209.803C136.122 199.554 136.371 189.772 136.692 180.885C136.87 176.442 137.084 172.214 137.298 168.272C137.511 164.33 137.761 160.675 138.01 157.307C138.972 143.905 139.934 135.664 140.397 135.699C140.896 135.735 140.824 144.049 140.468 157.45C140.397 160.819 140.29 164.474 140.183 168.415C140.076 172.357 140.005 176.549 139.898 180.993C139.72 189.844 139.613 199.59 139.684 209.803C139.756 220.015 140.041 229.726 140.468 238.577C140.718 242.984 140.931 247.177 141.216 251.119C141.359 253.089 141.466 254.989 141.644 256.78C141.786 258.608 141.964 260.328 142.107 262.012C142.356 265.344 142.713 268.354 142.962 271.006C143.104 272.332 143.211 273.55 143.318 274.697C143.425 275.844 143.568 276.883 143.674 277.779C144.066 281.469 144.173 283.548 143.924 283.584Z" fill="#D7D7D7" stroke="#D7D7D7" stroke-width="1.29063" stroke-miterlimit="10"/>
<path d="M389.309 407.855C389.202 407.998 387.527 406.995 384.749 405.49C383.359 404.737 381.721 403.842 379.832 403.053C377.944 402.265 375.807 401.477 373.491 401.047C371.176 400.617 368.931 400.581 366.901 400.867C364.87 401.154 363.124 401.727 361.699 402.301C360.274 402.91 359.17 403.519 358.422 403.985C358.03 404.2 357.745 404.379 357.567 404.522C357.353 404.63 357.246 404.666 357.211 404.666C357.175 404.63 357.246 404.522 357.424 404.343C357.567 404.164 357.816 403.913 358.172 403.627C358.849 403.053 359.918 402.301 361.379 401.548C362.804 400.832 364.656 400.151 366.758 399.792C368.86 399.434 371.282 399.398 373.705 399.864C376.163 400.294 378.372 401.154 380.296 402.014C382.219 402.91 383.858 403.877 385.212 404.737C387.848 406.493 389.38 407.712 389.309 407.855ZM403.024 404.773C402.917 404.917 401.813 404.2 399.889 403.304C399.64 403.197 399.391 403.089 399.141 402.946C398.892 402.838 398.607 402.731 398.322 402.623C397.752 402.372 397.111 402.193 396.469 401.942C395.151 401.548 393.691 401.19 392.087 400.939C390.52 400.724 388.988 400.688 387.599 400.688C386.922 400.724 386.245 400.76 385.639 400.832C385.319 400.867 385.034 400.867 384.749 400.939C384.464 400.975 384.179 401.011 383.929 401.082C381.863 401.441 380.581 401.835 380.545 401.656C380.509 401.512 381.685 400.867 383.787 400.294C384.036 400.222 384.321 400.151 384.606 400.079C384.891 400.007 385.212 399.972 385.532 399.9C386.174 399.757 386.851 399.721 387.563 399.649C388.988 399.542 390.591 399.577 392.266 399.792C393.904 400.043 395.472 400.437 396.826 400.939C397.502 401.19 398.144 401.441 398.714 401.727C398.999 401.871 399.284 401.978 399.533 402.122C399.782 402.265 400.032 402.408 400.281 402.552C402.134 403.698 403.096 404.666 403.024 404.773ZM267.792 210.162C267.792 210.091 267.792 209.983 267.756 209.947C267.756 209.876 267.685 209.84 267.649 209.804C267.614 209.804 267.614 209.768 267.578 209.768C267.578 209.768 267.542 209.768 267.578 209.768C267.614 209.768 267.649 209.768 267.685 209.732C267.721 209.697 267.756 209.732 267.721 209.697C267.721 209.697 267.721 209.697 267.721 209.732C267.721 209.768 267.721 209.804 267.756 209.84C267.792 209.876 267.756 209.84 267.756 209.84C267.756 209.84 267.721 209.804 267.685 209.804C267.649 209.768 267.578 209.768 267.507 209.768C267.436 209.804 267.364 209.876 267.293 209.876C267.222 209.876 267.151 209.876 267.044 209.804C266.972 209.697 266.937 209.553 266.972 209.374C267.008 209.195 267.115 209.016 267.329 208.908C267.436 208.837 267.542 208.801 267.721 208.801C267.863 208.801 268.077 208.837 268.219 208.944L268.291 208.98H268.326L268.362 209.016C268.397 209.052 268.397 209.052 268.433 209.087C268.469 209.123 268.504 209.159 268.504 209.195C268.54 209.231 268.54 209.267 268.576 209.302C268.647 209.446 268.647 209.589 268.647 209.697C268.611 209.947 268.504 210.127 268.362 210.234C268.219 210.342 268.077 210.377 267.97 210.342C267.863 210.306 267.792 210.234 267.792 210.162Z" fill="#D7D7D7" stroke="#D7D7D7" stroke-width="0.430212" stroke-miterlimit="10"/>
</svg>
